<svg width="148" height="110" viewBox="0 0 148 110" fill="none" xmlns="http://www.w3.org/2000/svg">
<g clip-path="url(#clip0_0_400)">
<path d="M57.4192 37.174C44.2214 37.6699 46.7059 50.3289 55.0408 51.3568C68.8863 53.0699 69.2154 36.7232 57.4192 37.174ZM74.3013 38.0486C67.2724 39.8248 69.6826 50.8969 79.1536 48.4986C86.1825 46.7224 83.7723 35.6502 74.3013 38.0486ZM31.8412 42.5478C20.597 44.6486 22.9011 61.5633 36.651 59.3092C50.4009 57.0551 45.6654 39.9601 31.8412 42.5478ZM91.279 44.351C86.9258 45.4601 87.4142 50.906 91.8948 52.5199C100.389 55.5855 102.534 41.4748 91.279 44.351ZM11.7631 48.8863C-8.87768 49.6797 0.731331 74.2764 16.9445 66.901C26.9995 62.3207 23.6125 48.4355 11.7631 48.8863ZM110.55 49.7158C104.02 46.1814 101.037 57.7314 108.894 55.7568C112.068 54.9543 112.313 50.6715 110.55 49.7158ZM124.406 55.8199C127.284 52.4027 119.278 49.274 118.142 52.7724C117.08 56.0092 122.824 57.6953 124.406 55.8199ZM75.3206 70.0478C83.2733 62.6724 71.1797 53.2232 62.9616 59.0928C53.7879 65.6387 67.5272 77.2789 75.3206 70.0478ZM83.3476 59.724C77.0088 65.1158 88.8051 74.2043 93.7742 67.2346C98.7432 60.265 88.1255 55.6666 83.3476 59.724ZM43.51 63.3035C31.7031 65.5666 35.7803 82.0846 48.3198 80.074C60.9867 78.0453 58.4703 60.4363 43.51 63.3035ZM104.041 64.151C96.3755 65.9002 101.323 76.8732 108.915 72.8879C114.362 70.0207 110.253 62.7355 104.041 64.151ZM19.0787 69.624C9.78822 71.4363 9.45907 85.592 18.2611 87.9543C39.1568 93.5715 40.8981 65.3683 19.0787 69.624ZM116.167 75.6109C117.292 77.1166 122.336 76.9002 123.281 74.2043C125.606 67.5322 112.015 70.0568 116.167 75.6109ZM136.181 72.1396C135.427 71.5084 128.611 71.806 129.821 75.2773C131.223 79.2986 139.186 74.6642 136.181 72.1396ZM77.476 78.6314C68.228 80.9666 71.7849 96.9887 84.9509 92.192C93.7848 88.9732 89.2298 75.665 77.476 78.6314ZM97.6602 79.524C92.2771 80.8674 92.2771 88.6305 97.6496 89.974C110.518 93.1838 109.977 76.4584 97.6602 79.524ZM56.2831 84.0412C45.1345 85.8625 46.2281 99.7387 56.1026 100.947C72.6343 102.958 71.8274 81.5076 56.2831 84.0412ZM114.595 85.8084C108.618 87.5756 113.64 97.6199 120.669 93.6797C126.455 90.4248 122.336 83.5182 114.595 85.8084ZM31.8199 90.3527C19.3229 92.7961 21.5314 110.739 35.7166 109.972C52.3121 109.071 49.3922 86.9264 31.8199 90.3527ZM129.428 91.1732C124.926 92.4445 128.579 100.307 134.132 96.9797C136.861 95.3478 135.417 89.4691 129.428 91.1732ZM147.871 92.8683H142.552C141.395 100.352 149.06 100.235 147.871 92.8683Z" fill="#003B99"/>
<path d="M36.374 -0.000228882C66.284 7.51043 52.4173 44.4867 23.9725 35.326C3.63963 28.7891 6.8037 5.09403 26.818 -0.000228882H36.374Z" fill="#003B99"/>
<path d="M31.8211 90.3518C49.3828 86.9166 52.3027 109.07 35.7178 109.971C21.5432 110.738 19.3241 92.7953 31.8211 90.3518Z" fill="#003B99"/>
<path d="M19.079 69.6246C40.9089 65.3688 39.157 93.5721 18.2614 87.9549C9.44873 85.5836 9.7885 71.4369 19.079 69.6246Z" fill="#003B99"/>
<path d="M11.7628 48.8879C23.6121 48.428 26.9992 62.3223 16.9442 66.9026C0.72038 74.287 -8.87801 49.6903 11.7628 48.8879Z" fill="#003B99"/>
<path d="M56.2844 84.0421C71.8287 81.4994 72.6356 102.958 56.1039 100.948C46.2294 99.7486 45.1358 85.8724 56.2844 84.0421Z" fill="#003B99"/>
<path d="M31.8431 42.5479C45.6673 39.9602 49.8294 57.1545 36.6529 59.3094C23.4763 61.4643 20.5989 44.6487 31.8431 42.5479Z" fill="#003B99"/>
<path d="M43.5099 63.3044C58.4702 60.4372 60.9866 78.0462 48.3197 80.0749C35.7802 82.0856 31.703 65.5676 43.5099 63.3044Z" fill="#003B99"/>
<path d="M57.4204 37.1736C69.2273 36.7318 68.8876 53.0695 55.0421 51.3564C46.6966 50.3195 44.212 37.6695 57.4204 37.1736Z" fill="#003B99"/>
<path d="M75.3223 70.0484C67.5289 77.2795 53.7896 65.6394 62.9633 59.0935C71.192 53.2238 83.275 62.673 75.3223 70.0484Z" fill="#003B99"/>
<path d="M77.4775 78.631C89.2313 75.6646 93.7863 88.9728 84.9524 92.1916C71.7758 96.9883 68.2189 80.9662 77.4775 78.631Z" fill="#003B99"/>
<path d="M97.6595 79.5236C109.976 76.458 110.517 93.1834 97.6488 89.9736C92.2763 88.6302 92.2763 80.8671 97.6595 79.5236Z" fill="#003B99"/>
<path d="M83.3488 59.7247C88.1267 55.6673 98.8506 60.1124 93.7754 67.2354C88.7001 74.3583 77.01 65.1165 83.3488 59.7247Z" fill="#003B99"/>
<path d="M74.3025 38.0499C83.7735 35.6606 86.1837 46.7237 79.1548 48.4999C69.6838 50.8892 67.2736 39.8261 74.3025 38.0499Z" fill="#003B99"/>
<path d="M104.042 64.1515C110.253 62.7359 114.362 70.0211 108.915 72.8884C101.324 76.8826 96.3758 65.9007 104.042 64.1515Z" fill="#003B99"/>
<path d="M114.596 85.8102C122.336 83.52 126.456 90.4266 120.669 93.6815C113.651 97.6307 108.618 87.5864 114.596 85.8102Z" fill="#003B99"/>
<path d="M91.2797 44.3506C102.524 41.4744 100.39 55.5851 91.8956 52.5195C87.4149 50.9056 86.9371 45.4597 91.2797 44.3506Z" fill="#003B99"/>
<path d="M129.43 91.1741C135.419 89.479 136.863 95.3487 134.134 96.9806C128.581 100.299 124.918 92.4454 129.43 91.1741Z" fill="#003B99"/>
<path d="M116.167 75.6109C112.005 70.0658 125.606 67.5322 123.281 74.2044C122.336 76.9003 117.292 77.1077 116.167 75.6109Z" fill="#003B99"/>
<path d="M110.552 49.7166C112.325 50.6723 112.07 54.9551 108.896 55.7576C101.039 57.7322 104.012 46.1912 110.552 49.7166Z" fill="#003B99"/>
<path d="M124.407 55.8211C122.825 57.6965 117.08 56.0194 118.142 52.7735C119.289 49.2752 127.295 52.3948 124.407 55.8211Z" fill="#003B99"/>
<path d="M147.87 92.8674C149.059 100.234 141.393 100.351 142.55 92.8674H147.87Z" fill="#003B99"/>
<path d="M136.182 72.1405C139.197 74.6741 131.223 79.3085 129.822 75.2782C128.611 71.7979 135.417 71.5003 136.182 72.1405Z" fill="#003B99"/>
</g>
<defs>
<clipPath id="clip0_0_400">
<rect width="148" height="110" fill="white"/>
</clipPath>
</defs>
</svg>
