<svg width="3569" height="2160" viewBox="0 0 3569 2160" fill="none" xmlns="http://www.w3.org/2000/svg">
<path fill-rule="evenodd" clip-rule="evenodd" d="M3565.76 205.731C3560.88 205.443 3553.11 205.731 3549.66 201.707C3548.34 200.154 3547.94 198.2 3547.48 196.245C3546.62 192.739 3545.52 188.83 3544.95 185.266C3544.43 182.334 3543.68 177.275 3540.64 175.55C3539.2 174.746 3537.94 175.435 3536.56 174.343C3535.06 173.136 3534.43 171.124 3534.2 169.342C3533.74 165.375 3534.03 160.776 3534.2 156.81C3534.37 152.958 3539.03 144.68 3543.45 144.91C3540.58 144.91 3538.68 144.163 3535.92 143.531C3533.57 143.013 3532.13 141.231 3530.23 139.909C3527.07 137.667 3523.91 135.425 3520.75 133.068C3514.31 128.24 3507.75 122.146 3502.75 115.765C3500.85 113.351 3499.3 111.051 3496.89 109.097C3495.68 108.119 3494.24 107.717 3493.15 106.51C3492.57 105.877 3492.29 104.613 3491.65 104.095C3488.66 101.738 3482.51 102.543 3479.06 102.543C3477.11 102.543 3475.1 102.486 3473.14 102.543C3470.32 102.543 3468.2 103.578 3465.5 103.98C3460.49 104.728 3457.96 102.658 3455.32 98.5768C3453.36 95.53 3451.12 93.5756 3448.13 91.6785C3443.53 88.8042 3438.82 85.8148 3434.22 82.7681C3430.25 80.1238 3426.57 75.1224 3421.97 73.7428C3417.37 72.4207 3410.93 73.4553 3406.22 73.4553C3394.09 73.4553 3380.98 75.1226 3369.08 72.9955C3362.24 71.7883 3356.09 68.7415 3349.99 65.6372C3346.72 63.9702 3342.75 62.7056 3339.99 60.2911C3337.34 57.9342 3335.39 56.3821 3332.23 55.0024C3328.32 53.2778 3324.01 52.3005 3319.98 50.8059C3314 48.5065 3308.25 44.0801 3304.11 39.2512C3298.77 32.9852 3293.94 26.6044 3288.59 20.3959C3286.12 17.579 3283.53 15.1072 3280.71 12.5778C3276.29 8.55371 3273.07 3.4375 3268.64 -0.644043C3265.77 -3.23096 3262.26 -5.58789 3259.67 -8.46216C3258.06 -10.2443 3257.66 -12.3712 3256.22 -14.2682C3255.19 -15.6478 3253.46 -18.0048 3252.08 -18.9246C3250.47 -20.0167 3248.12 -19.2119 3247.6 -21.6838C3246.33 -27.6624 3235.98 -32.6637 3232.77 -37.8949C3231.62 -39.792 3230.7 -42.2639 3229.09 -43.9309C3226.15 -47.0352 3221.61 -47.6676 3218.39 -50.7719C3213.22 -55.8306 3208.62 -61.1193 3203.85 -66.5804C3201.26 -69.5697 3198.33 -71.9266 3196.14 -75.2607C3193.5 -79.2848 3191.14 -83.4238 3188.38 -87.4478C3180.91 -98.2551 3174.7 -108.2 3173.43 -121.594C3172.8 -127.918 3171.48 -134.299 3170.33 -140.565C3169.06 -147.233 3168.95 -155.914 3164.46 -161.432C3161.07 -165.571 3154.35 -169.825 3149.57 -172.24C3142.62 -175.746 3138.13 -180.575 3133.3 -186.726C3128.13 -193.337 3126.58 -201.328 3124.45 -209.203C3123.47 -212.825 3121.75 -216.159 3120.71 -219.78C3119.62 -223.517 3119.45 -227.426 3118.18 -231.048C3116.29 -236.681 3113.3 -242.2 3110.88 -247.661C3107.66 -254.904 3106.51 -262.665 3104.67 -270.368C3103.87 -273.702 3102.14 -276.519 3100.99 -279.681C3099.38 -284.165 3098.52 -288.879 3097.08 -293.362C3094.38 -301.641 3092.37 -309.746 3090.24 -318.139C3088.06 -326.819 3087.94 -339.466 3091.22 -347.859C3093 -352.343 3094.96 -356.712 3096.91 -361.081C3097.54 -362.461 3098.52 -364.013 3098.64 -365.565C3098.75 -367.404 3098.23 -369.474 3098.18 -371.371C3097.95 -376.2 3097.43 -381.316 3098.64 -386.087C3099.21 -388.272 3100.3 -390.399 3099.73 -392.871C3098.92 -396.262 3094.09 -397.297 3091.74 -399.654C3080.01 -411.266 3072.53 -427.707 3066.61 -442.883C3065.29 -446.218 3063.45 -448.977 3062.36 -452.311C3061.44 -455.128 3058.79 -458.692 3058.74 -461.566C3058.68 -465.13 3056.55 -467.545 3055.92 -471.052C3054.94 -476.915 3051.38 -483.066 3048.1 -488.01C3044.36 -493.586 3041.49 -499.622 3037.41 -504.968C3033.21 -510.487 3030.22 -516.236 3026.94 -522.272C3019.47 -536.011 3011.71 -549.462 3005.33 -563.776C2999.4 -577.228 2994.11 -590.967 2991.64 -605.569C2990.55 -611.835 2991.35 -619.135 2991.35 -625.459C2991.35 -635.519 2990.61 -646.154 2991.47 -656.271C2992.39 -666.964 2993.42 -677.829 2992.73 -688.578C2992.45 -692.832 2989.28 -698.236 2984.8 -699.328C2989.57 -699.098 2994.4 -699.443 2999.17 -699.328C3001.3 -699.271 3007.68 -697.431 3010.15 -697.834C3014.58 -698.581 3013.89 -706.457 3013.95 -710.481C3014.12 -720.656 3013.95 -730.831 3013.95 -740.948C3013.95 -743.822 3014.18 -746.754 3013.66 -749.571C3012.28 -757.332 3011.07 -765.207 3009.69 -773.025C3009.06 -776.704 3007.45 -783.373 3004.75 -786.132C3002.8 -788.144 2999.58 -788.431 2998.25 -791.306C2996.93 -794.18 2999.17 -798.779 3000.15 -801.423C3002.45 -807.862 3005.44 -814.243 3008.83 -820.164C3013.03 -827.464 3017.63 -834.478 3021.19 -842.123C3024.13 -848.389 3024.76 -855.46 3027.06 -861.956C3029.59 -869.027 3031.77 -880.352 3039.3 -884.261C3041.78 -885.525 3044.59 -885.755 3047.01 -887.192C3050.34 -889.204 3051.84 -892.654 3053.45 -895.988C3054.88 -898.977 3058.22 -902.369 3058.97 -905.415C3059.77 -908.577 3058.28 -912.486 3058.79 -915.763C3059.02 -917.085 3060 -917.89 3060.23 -919.327C3060.46 -920.477 3060.17 -922.374 3060.17 -923.581C3060.17 -930.537 3058.74 -940.194 3061.15 -946.345C3063.51 -952.381 3066.32 -954.681 3071.9 -957.383C3073.45 -958.13 3074.6 -959.107 3075.87 -960.314C3077.59 -961.982 3079.55 -963.764 3080.64 -965.948C3082.48 -969.685 3081.79 -974.226 3083.57 -977.963C3084.72 -980.262 3086.91 -982.849 3089.15 -984.171C3092.2 -985.953 3096.45 -986.816 3099.67 -988.425C3102.26 -989.69 3104.96 -990.207 3107.66 -991.184C3110.59 -992.219 3113.12 -993.771 3116 -995.093C3120.48 -997.163 3129.97 -998.37 3130.14 -1004.23C3130.66 -1018.26 3130.14 -1032.4 3130.14 -1046.43C3130.14 -1049.94 3130.14 -1053.44 3130.14 -1056.95C3130.03 -1063.16 3131.81 -1068.33 3134.11 -1074.08C3139.34 -1086.84 3143.59 -1100.01 3149.29 -1112.59C3152.51 -1119.61 3158.03 -1127.02 3157.85 -1134.96L3194.19 -1214H-820.686V2884.75C-807.347 2884.75 -794.009 2884.69 -780.671 2884.86C-764.975 2885.04 -752.27 2881.99 -737.322 2877.73C-722.603 2873.54 -707.195 2868.48 -693.972 2860.83C-687.648 2857.16 -682.301 2853.71 -674.482 2854.68C-666.318 2855.72 -662.581 2866.93 -656.947 2872.91C-646.656 2883.77 -629.523 2880.03 -615.725 2879.86C-596.177 2879.63 -574.848 2884.23 -556.163 2890.09C-548.459 2892.51 -539.49 2893.6 -531.326 2892.05C-522.875 2890.44 -519.77 2885.61 -514.021 2879.69C-506.834 2872.22 -499.648 2875.21 -488.724 2874.98C-480.215 2874.8 -471.476 2872.27 -463.255 2872.04C-449.514 2871.7 -434.624 2881.76 -423.527 2888.54C-413.466 2894.69 -397.713 2903.14 -385.582 2902.17C-374.601 2901.3 -362.011 2896.19 -353.789 2888.83C-352.237 2887.45 -351.892 2885.9 -349.995 2884.98C-346.603 2883.37 -342.808 2884.81 -340.048 2886.42C-332.344 2890.84 -326.653 2898.83 -318.776 2903.49C-305.783 2911.13 -290.95 2915.1 -277.382 2921.65C-272.667 2923.9 -269.448 2925.33 -266.86 2929.47C-262.836 2935.97 -259.329 2942.41 -249.613 2939.02C-245.818 2937.69 -242.196 2933.96 -239.207 2931.43C-233.86 2926.89 -228.57 2924.3 -222.534 2920.79C-215.75 2916.88 -209.54 2912.51 -202.469 2909.01C-197.524 2906.54 -191.488 2904.47 -187.521 2900.73C-184.991 2898.37 -183.554 2894.64 -181.082 2892.22C-178.839 2889.98 -177.057 2888.66 -175.102 2886.01C-173.09 2883.37 -170.848 2880.49 -170.043 2877.33C-169.411 2874.92 -170.618 2873.02 -168.893 2870.78C-160.902 2873.42 -151.818 2872.73 -143.654 2871.76C-133.938 2870.61 -123.244 2871.07 -113.815 2868.59C-108.986 2867.33 -104.847 2865.26 -100.88 2862.33C-99.7297 2861.47 -96.9701 2858.25 -95.5328 2857.73C-92.3132 2856.58 -88.0588 2857.5 -84.7242 2857.5C-78.285 2857.5 -70.9835 2858.48 -64.8892 2860.09C-60.6923 2861.24 -57.7027 2865.61 -53.6782 2867.62C-48.1589 2870.32 -42.0648 2870.26 -36.0281 2870.03C-26.5418 2869.63 -17.0555 2866.76 -7.79919 2865.15C-0.612671 2863.88 6.17145 2862.9 13.4155 2861.24C21.522 2859.34 29.5709 2858.19 37.5049 2856.29C49.8083 2853.36 63.8364 2855.03 76.5422 2855.03C82.694 2855.03 87.5233 2854.97 93.3301 2856.81C100.747 2859.17 107.876 2858.99 115.177 2860.55C123.859 2862.33 131.275 2866.7 139.842 2868.82C148.753 2871.01 159.619 2872.33 168.818 2872.5C183.478 2872.85 196.127 2873.08 209.81 2868.08C216.996 2865.43 222.286 2862.44 229.99 2862.5C235.797 2862.5 241.028 2862.21 246.663 2863.94C251.779 2865.49 255.459 2867.16 260.748 2867.5C271.729 2868.25 282.078 2870.84 292.656 2873.77C296.624 2874.86 300.705 2874.86 304.155 2877.28C307.03 2879.29 308.754 2881.18 311.974 2882.91C317.666 2885.96 323.358 2889.12 326.98 2894.64C334.166 2905.62 338.421 2917.92 344.342 2929.59C348.137 2936.95 349.114 2933.61 354.806 2930.74C356.818 2929.7 359.118 2929.36 361.073 2928.38C363.257 2927.29 364.637 2925.45 367.282 2924.76C377.573 2922.06 394.821 2923.44 403.445 2930.1C407.699 2933.38 409.424 2938.9 412.011 2943.33C415.461 2949.13 416.84 2948.56 423.165 2949.65C427.534 2950.45 430.639 2951.89 435.238 2951.95C441.965 2952.06 448.749 2951.89 455.475 2951.89C466.916 2951.89 481.232 2954.31 492.385 2952.01C499.917 2950.51 505.724 2949.36 513.715 2949.42C520.902 2949.48 529.238 2948.56 536.08 2946.78C551.43 2942.81 562.814 2932.23 571.61 2919.41C574.772 2914.81 576.957 2910.62 580.809 2906.25C586.271 2900.1 588.398 2895.04 590.755 2886.99C595.355 2871.41 603.921 2857.9 609.958 2843.3C616.167 2828.18 628.01 2815.94 635.254 2801.57C637.899 2796.33 638.991 2790.59 642.786 2785.64C645.833 2781.62 648.593 2780.35 649.397 2775.07C649.972 2771.39 651.582 2764.49 651.64 2760.69C656.182 2761.67 661.586 2758.11 666.53 2758.22C673.774 2758.39 679.179 2761.38 686.308 2762.76C697.174 2764.83 708.902 2765.52 719.653 2762.53C726.323 2760.69 732.187 2757.47 736.959 2752.42C738.051 2751.27 739.661 2748.1 741.5 2747.47C744.605 2746.32 754.034 2747.18 756.851 2748.45C760.818 2750.23 759.611 2750.75 761.163 2754.54C763.52 2760.18 766.222 2762.07 770.132 2766.21C777.548 2774.15 782.723 2783.11 793.531 2786.85C802.615 2770.41 820.783 2760.81 835.673 2750.46C841.307 2746.55 846.769 2742.7 853.668 2741.55C863.845 2739.83 882.587 2738.68 889.429 2745.86C895.638 2752.47 900.755 2759.37 908.056 2765.24C911.563 2768.05 914.093 2769.6 917.37 2772.59C919.612 2774.61 919.842 2775.24 922.199 2776.44C925.994 2778.34 929.788 2778.46 933.468 2780.47C947.841 2788.46 960.892 2800.47 971.413 2813.06C976.587 2819.27 982.969 2821.97 989.466 2826.52C994.008 2829.68 997.285 2833.99 1001.77 2837.15C1010.11 2843.01 1015.68 2851.64 1022.06 2859.86C1030.29 2870.38 1037.93 2879.86 1044.95 2891.07C1050.29 2899.64 1053.91 2900.27 1063.86 2899.81C1069.15 2899.58 1070.13 2897.05 1074.32 2895.27C1077.14 2894.06 1080.53 2894.06 1083.52 2892.97C1093.07 2889.52 1101.46 2887.11 1111.58 2887.34C1119.74 2887.51 1123.25 2887.34 1128.6 2880.49C1131.64 2876.59 1134.12 2872.56 1137.11 2868.71C1139.81 2865.2 1140.56 2863.36 1144.47 2862.39C1150.16 2860.95 1150.96 2864 1155.73 2859.63C1158.09 2857.44 1159.7 2853.76 1162.06 2851.41C1163.67 2849.8 1164.76 2850.08 1165.85 2847.96C1167.86 2843.93 1165.62 2832.67 1165.68 2827.95C1165.68 2823.93 1164.53 2821.46 1163.73 2817.78C1162.52 2812.49 1164.76 2811.97 1168.27 2808.41C1174.59 2802.03 1180.69 2795.3 1187.76 2789.26C1193.16 2784.61 1199.2 2780.35 1204.2 2775.35C1209.66 2769.89 1212.13 2761.15 1217.6 2756.21C1219.61 2754.37 1222.31 2750.69 1225.36 2750.75C1228.63 2750.81 1230.59 2748.79 1231.16 2744.66C1234.84 2737.58 1239.33 2731.09 1244.56 2725.11C1248.18 2720.4 1247.89 2720.97 1247.72 2714.42C1247.49 2704.19 1245.77 2691.08 1248.24 2681.13C1249.45 2676.19 1252.49 2668.72 1256.92 2665.61C1264.05 2660.67 1266.87 2666.01 1273.36 2668.37C1306.25 2680.21 1287.05 2632.04 1309.7 2627.1C1322.98 2624.22 1316.02 2630.32 1324.07 2636.7C1327.69 2639.57 1324.19 2639.17 1329.99 2638.54C1333.73 2638.08 1340.63 2637.62 1344.14 2636.29C1347.53 2617.21 1346.78 2598.53 1346.95 2579.15C1347.07 2568.98 1349.2 2559.44 1351.96 2549.89C1354.2 2542.13 1353.62 2534.2 1357.3 2526.96C1360.81 2520.11 1366.16 2514.65 1369.38 2507.58C1372.02 2501.83 1373.69 2495.45 1376.62 2489.88C1380.01 2483.44 1386.34 2479.76 1388.64 2472.75C1390.02 2468.67 1392.55 2463.61 1393.7 2459.52C1397.2 2446.88 1390.48 2432.22 1396.4 2420.26C1399.62 2413.82 1401.57 2407.44 1404.04 2400.77C1405.88 2395.83 1409.91 2391.35 1411.12 2386.17C1412.38 2380.71 1411.46 2373.99 1411.46 2368.35C1411.46 2350.99 1418.59 2335.3 1423.25 2318.57C1426.41 2307.3 1432.45 2297.36 1436.35 2286.38C1438.88 2279.19 1441.13 2271.78 1444.23 2264.82C1447.57 2257.29 1450.61 2248.03 1456.02 2241.77C1461.71 2235.27 1465.96 2238.38 1473.09 2236.42C1473.38 2231.25 1476.54 2229.41 1479.47 2225.61C1482.69 2221.53 1485.11 2216.65 1488.39 2212.51C1493.96 2205.49 1500.52 2199.17 1505.92 2192.04C1519.83 2173.7 1527.6 2151.86 1541.62 2133.58C1546.63 2127.03 1551.74 2122.43 1555.54 2115.07C1558.53 2109.26 1562.61 2104.15 1565.54 2098.34C1569.16 2091.21 1572.96 2083.85 1575.31 2076.73C1576.98 2071.72 1577.21 2072.3 1581.52 2069.02C1584.97 2066.38 1588.02 2063.16 1591.47 2060.57C1600.67 2053.5 1607.22 2047.24 1618.66 2044.25C1621.42 2043.5 1624.24 2043.04 1626.71 2041.49C1630.79 2038.96 1632.81 2035.11 1635.16 2031.08C1643.85 2016.25 1656.21 2009.7 1669.26 1999.18C1679.03 1991.36 1679.84 1978.31 1692.02 1974.17C1700.48 1971.3 1707.95 1969.23 1715.65 1964.63C1721.17 1961.35 1724.16 1956.81 1730.37 1954.17C1735.55 1951.98 1742.56 1949.85 1748.08 1948.88C1753.6 1947.9 1759.69 1950.08 1765.27 1948.59C1765.67 1939.51 1774.93 1930.65 1779.24 1922.95C1783.09 1916.05 1786.02 1908.52 1790.11 1901.8C1794.19 1895.07 1797.52 1893.23 1803.56 1889.21C1809.94 1884.95 1814.89 1878.34 1820.81 1873.92C1827.59 1868.86 1832.36 1867.3 1838.28 1860.58C1846.16 1851.61 1855.93 1844.94 1863.41 1835.51C1867.66 1830.11 1873.64 1824.36 1874.97 1817.58C1876.69 1808.61 1872.03 1794.24 1877.09 1786.54C1882.15 1778.83 1895.43 1778.03 1903.37 1776.88C1928.49 1773.26 1953.56 1768.26 1977.42 1759.46C1980.87 1758.2 1984.2 1756.82 1987.59 1755.44C2006.91 1747.27 2026.17 1736.35 2046.93 1732.16C2062.68 1728.99 2076.82 1739.86 2092.34 1741.01C2103.61 1741.87 2114.94 1741.18 2126.09 1743.19C2129.66 1743.82 2153.29 1750.67 2146.79 1759.06C2148.57 1756.7 2150.07 1758.2 2152.6 1756.59C2155.01 1755.09 2156.33 1752.73 2158.52 1751.13C2164.67 1746.41 2172.83 1744.69 2179.91 1741.7C2194.28 1735.6 2210.66 1727.38 2226.59 1727.56C2236.31 1727.67 2246.02 1727.44 2255.74 1727.56C2263.9 1727.67 2265.45 1726.98 2271.38 1721.12C2285 1707.72 2299.26 1684.44 2321.51 1685.94C2328.52 1686.4 2331.28 1690.54 2336.17 1695.42C2345.66 1704.85 2351.87 1714.39 2358.36 1725.95C2362.04 1732.44 2365.03 1740.66 2371.99 1742.5C2381.99 1745.15 2397 1741.24 2406.77 1739.4C2418.96 1737.16 2435.75 1733.13 2445.81 1725.08C2450.29 1721.52 2452.25 1717.21 2457.65 1713.99C2466.05 1708.93 2471.22 1704.62 2480.71 1703.53C2493.18 1702.09 2505.89 1697.78 2518.13 1695.13C2526.41 1693.35 2541.25 1693.81 2546.13 1686.17C2541.48 1681.85 2540.9 1677.37 2534.29 1674.96C2530.95 1673.69 2527.85 1674.09 2524.57 1672.31C2518.25 1668.86 2512.27 1665.18 2505.49 1662.25C2499.85 1659.84 2493.87 1657.19 2488.64 1654.55C2480.76 1650.58 2480.99 1648.28 2477.49 1640.46C2471.85 1627.76 2469.44 1616.55 2455.06 1612.7C2445.12 1610.05 2428.16 1604.88 2424.54 1592.98C2421.49 1583.04 2423.1 1562.28 2426.43 1552.68C2429.77 1543.08 2433.56 1534.92 2439.2 1526.53C2441.04 1523.77 2442.24 1520.38 2444.14 1517.73C2446.67 1514.23 2450.41 1512.67 2453.17 1509.11C2455.47 1506.06 2456.44 1503.02 2459.49 1500.2C2463.17 1496.86 2467.83 1495.26 2471.05 1491.35C2473.46 1488.36 2474.15 1485.66 2477.37 1483.13C2480.88 1480.37 2485.94 1478.7 2489.39 1475.83C2495.02 1471.17 2495.83 1463.75 2495.88 1456.91C2495.88 1453.23 2494.91 1449.15 2495.31 1445.53C2496.17 1437.42 2503.59 1432.94 2509.28 1426.79C2511.52 1424.38 2513.71 1421.27 2516.93 1420.18C2525.44 1417.25 2533.6 1425.47 2542.11 1422.88C2542.4 1415.75 2537.51 1409.26 2537.57 1402.13C2537.57 1396.9 2540.33 1392.93 2542.17 1388.22C2544.64 1381.72 2543.49 1374.25 2546.65 1368.33C2549.98 1362.12 2556.94 1358.67 2559.47 1351.83C2561.31 1346.77 2562.52 1344.18 2567.81 1343.78C2570.57 1343.61 2575.4 1343.09 2577.81 1341.54C2580.4 1339.87 2581.95 1336.19 2583.79 1333.89C2586.03 1331.02 2587.35 1329.87 2588.27 1326.71C2591.26 1315.9 2595.81 1305.44 2600.29 1295.2C2601.5 1292.45 2601.21 1291.18 2601.79 1288.13C2602.3 1285.2 2603.51 1282.27 2604.2 1279.4C2604.78 1277.04 2605.18 1274.8 2606.27 1272.55C2607.48 1270.14 2609.43 1268.3 2610.58 1265.89C2612.77 1261.29 2613.57 1255.88 2616.04 1251.29C2618.8 1246.23 2622.94 1242.89 2628 1240.48C2630.59 1239.27 2633.52 1238.52 2635.82 1236.97C2639.27 1234.67 2641.63 1231.8 2646.17 1231.39C2647.26 1227.83 2647.89 1223.98 2648.87 1220.36C2650.02 1216.1 2649.62 1211.68 2650.54 1207.48C2650.94 1205.7 2652.9 1199.95 2654.51 1198.74C2655.2 1198.23 2657.04 1198.51 2657.9 1198.23C2658.76 1198 2659.28 1197.02 2660.6 1197.08C2663.36 1185.35 2662.15 1172.87 2662.21 1160.86C2662.21 1149.94 2662.21 1139.53 2664.11 1128.73C2665.26 1122.29 2666.81 1116.02 2668.07 1109.58C2668.82 1105.79 2668.76 1101.82 2669.74 1098.08C2673.54 1083.66 2676.81 1066.41 2672.73 1051.75C2671.01 1045.43 2671.41 1038.93 2671.41 1032.44C2671.41 1027.15 2670.26 1020.71 2672.67 1015.77C2673.59 1013.81 2674.74 1011.97 2675.66 1010.02C2676.35 1008.52 2678.77 1006.68 2679.17 1005.36C2679.8 1003.29 2678.08 1001.97 2676.81 1000.3C2674 996.565 2671.75 992.541 2670.14 988.115C2668.07 982.653 2668.19 975.927 2669.4 970.236C2670.49 965.062 2672.9 960.176 2676.01 955.865C2677.27 954.14 2678.94 951.036 2680.67 949.771C2681.81 948.966 2683.37 948.966 2684.69 948.679C2688.31 947.817 2691.76 946.38 2695.56 946.207C2698.26 946.092 2701.13 946.667 2703.83 946.38C2707.92 945.862 2711.54 943.793 2715.74 943.678C2719.64 943.62 2723.61 943.678 2727.52 943.678C2729.3 943.678 2730.17 943.218 2731.03 944.827C2731.49 945.747 2731.37 951.266 2730.86 952.128C2730.05 953.623 2728.04 953.22 2727.12 954.543C2726.2 955.865 2727.41 957.819 2726.66 959.314C2722.35 959.544 2718.27 960.119 2714.36 962.131C2710.62 964.085 2710.73 965.35 2709.07 968.339C2707.69 970.811 2707.34 971.386 2704.93 973.168C2702.97 974.605 2697.17 977.652 2697.8 980.584C2708.78 983.113 2716.14 971.501 2726.37 970.179C2730.86 969.604 2735.4 968.512 2739.77 967.304C2745.29 965.752 2749.25 961.843 2754.03 959.084C2756.27 957.819 2758.68 958.279 2761.33 958.279C2764.89 958.279 2768.69 957.819 2772.19 958.567C2775.41 959.256 2778.17 961.211 2781.22 962.303C2785.59 963.798 2790.25 965.35 2794.73 966.27C2799.5 967.247 2808.64 969.431 2813.47 966.959C2816.46 965.407 2815.2 964.085 2814.45 961.211C2812.96 955.52 2812.27 949.541 2811.17 943.793C2809.97 937.584 2808.7 931.491 2808.82 925.11C2808.93 920.511 2809.1 915.969 2807.67 911.543C2805.6 905.047 2802.09 899.586 2800.54 892.918C2799.56 888.721 2799.67 884.812 2799.62 880.443C2799.33 857.506 2799.62 847.734 2799.62 824.797C2799.62 817.898 2799.62 811 2799.62 804.102C2799.62 801.4 2799.5 799.503 2800.94 797.261C2803.7 792.95 2806.11 789.443 2806.23 784.039C2806.34 778.291 2814.11 774.497 2816.52 769.265C2817.21 767.828 2817.21 765.759 2817.73 764.207C2818.82 760.987 2820.37 757.596 2822.38 754.836C2831.64 742.304 2848.31 747.651 2861.08 742.879C2864.58 741.557 2866.71 737.993 2869.93 736.671C2874.47 734.889 2882.52 736.154 2886.95 737.361C2891.84 738.683 2898.45 740.177 2902.7 742.937C2905.06 744.489 2907.01 746.788 2909.49 748.34C2912.24 750.065 2916.04 750.238 2918.45 752.25V711.894C2918.45 706.663 2917.02 698.96 2918.74 694.074C2920.35 689.417 2926.56 692.119 2928.92 688.555C2931.04 685.336 2926.79 680.622 2926.33 677.575C2925.58 672.574 2926.45 666.883 2926.33 661.824C2926.33 659.87 2925.99 658.49 2927.02 657.053C2928.17 655.501 2931.79 654.293 2933.4 653.086C2936.74 650.557 2936.56 649.005 2938.17 645.268C2940.36 640.382 2942.37 635.495 2944.33 630.494C2945.3 627.965 2946.34 623.711 2948.7 622.044C2953.47 618.595 2962.61 620.262 2968.13 618.825C2971.86 617.847 2976.52 616.41 2979.11 613.364C2980.95 611.236 2981.64 607.96 2983.02 605.545C2984.51 602.844 2986.76 600.832 2988.42 598.302C2994.4 589.104 3004.23 583.126 3014.52 579.217C3030.1 573.296 3050.34 574.675 3063.11 562.546C3068.22 557.717 3073.22 554.038 3079.55 550.819C3085.87 547.599 3093.23 548.002 3100.3 545.645C3108.75 542.828 3116.69 538.459 3124.51 534.263C3131.87 530.239 3138.36 532.193 3146.64 531.791C3152.62 531.503 3157.62 528.974 3160.38 523.685C3162.11 520.351 3164.52 519.029 3166.65 516.327C3171.02 510.866 3171.82 498.909 3179.99 498.564C3184.01 498.392 3189.07 497.817 3193.04 498.564C3196.55 499.196 3198.44 501.323 3202.24 501.266C3204.77 501.266 3207.58 500.576 3209.48 502.473C3210.8 503.738 3211.15 506.152 3212.07 507.762C3213.22 509.716 3214.89 511.786 3216.73 513.223C3220.17 515.925 3224.2 515.81 3228.4 515.81C3234.43 515.81 3240.41 515.752 3246.45 515.81C3249.15 515.81 3250.36 515.925 3252.72 514.545C3254.84 513.338 3255.99 511.038 3257.72 509.889C3261.4 507.474 3267.72 511.153 3271.52 509.141C3274.51 507.532 3276.86 500.461 3277.38 497.184C3278.07 492.93 3275.42 484.192 3278.13 480.858C3279.62 479.019 3283.42 479.191 3285.26 477.582C3287.73 475.397 3286.98 471.546 3286.64 468.441C3286 462.865 3284.16 458.266 3279.56 455.047C3275.94 452.46 3272.32 451.943 3272.09 446.942C3271.92 443.665 3271.23 438.779 3273.13 435.962C3274.51 433.892 3281.4 428.374 3284.05 428.719C3282.96 425.902 3292.04 416.531 3292.21 416.359C3295.43 413.427 3299.05 411.415 3302.45 408.771C3305.84 406.127 3307.39 404 3308.77 400.033C3310.09 396.239 3311.76 394.112 3314.86 391.525C3320.61 386.811 3326.48 382.557 3331.65 377.154C3333.66 375.027 3336.37 370.14 3339.41 369.221C3342.69 368.186 3348.15 369.221 3351.55 369.221C3356.72 369.336 3362.12 371.118 3367.24 371.922C3370.86 372.497 3376.78 374.452 3380.58 373.187C3383.97 372.095 3389.61 364.737 3390.81 361.23C3391.96 357.838 3390.87 355.481 3394.26 352.78C3401.68 346.916 3400.82 358.758 3405.65 361.69C3408.58 363.472 3414.67 362.955 3418.01 362.725C3421.86 362.495 3424.04 359.965 3426.92 357.723C3431.92 353.872 3436.4 353.01 3442.38 351.86C3442.56 349.618 3439.74 349.445 3438.47 347.951C3436.46 345.594 3436.23 341.11 3436 338.293C3435.02 327.946 3435.77 311.677 3446.52 306.043C3448.02 305.239 3450.49 304.836 3452.16 304.261C3456.53 302.709 3461.07 301.272 3465.61 300.007C3470.38 298.685 3475.67 296.214 3479.52 299.72C3482.05 302.02 3483.78 305.124 3487.69 304.376C3489.99 303.917 3493.61 301.272 3494.76 299.375C3495.91 297.363 3495.28 295.064 3495.33 292.707C3495.45 285.464 3499.59 276.553 3506.08 273.047C3507.75 272.127 3509.59 271.494 3511.32 270.69C3517.18 267.93 3522.36 263.504 3528.39 261.09C3529.94 260.457 3530.4 260.917 3531.73 259.71C3533.22 258.388 3533.91 256.203 3535.29 254.651C3540.41 249.017 3548.8 242.694 3556.39 242.292C3559.09 242.177 3563.64 243.671 3565.76 241.544C3567.31 240.05 3566.45 237.75 3566.97 235.796C3567.49 233.899 3567.95 232.692 3568 230.622C3568.12 226.426 3568 222.229 3568 218.033C3568 214.871 3568.81 210.387 3568 207.398C3567.43 205.213 3567.54 205.673 3565.13 205.558L3565.76 205.731Z" fill="#AED4F2" style="mix-blend-mode:darken"/>
<path fill-rule="evenodd" clip-rule="evenodd" d="M3565.76 205.731C3560.88 205.443 3553.11 205.731 3549.66 201.707C3548.34 200.154 3547.94 198.2 3547.48 196.245C3546.62 192.739 3545.52 188.83 3544.95 185.266C3544.43 182.334 3543.68 177.275 3540.64 175.55C3539.2 174.746 3537.94 175.435 3536.56 174.343C3535.06 173.136 3534.43 171.124 3534.2 169.342C3533.74 165.375 3534.03 160.776 3534.2 156.81C3534.37 152.958 3539.03 144.68 3543.45 144.91C3540.58 144.91 3538.68 144.163 3535.92 143.531C3533.57 143.013 3532.13 141.231 3530.23 139.909C3527.07 137.667 3523.91 135.425 3520.75 133.068C3514.31 128.24 3507.75 122.146 3502.75 115.765C3500.85 113.351 3499.3 111.051 3496.89 109.097C3495.68 108.119 3494.24 107.717 3493.15 106.51C3492.57 105.877 3492.29 104.613 3491.65 104.095C3488.66 101.738 3482.51 102.543 3479.06 102.543C3477.11 102.543 3475.1 102.486 3473.14 102.543C3470.32 102.543 3468.2 103.578 3465.5 103.98C3460.49 104.728 3457.96 102.658 3455.32 98.5768C3453.36 95.53 3451.12 93.5756 3448.13 91.6785C3443.53 88.8042 3438.82 85.8148 3434.22 82.7681C3430.25 80.1238 3426.57 75.1224 3421.97 73.7428C3417.37 72.4207 3410.93 73.4553 3406.22 73.4553C3394.09 73.4553 3380.98 75.1226 3369.08 72.9955C3362.24 71.7883 3356.09 68.7415 3349.99 65.6372C3346.72 63.9702 3342.75 62.7056 3339.99 60.2911C3337.34 57.9342 3335.39 56.3821 3332.23 55.0024C3328.32 53.2778 3324.01 52.3005 3319.98 50.8059C3314 48.5065 3308.25 44.0801 3304.11 39.2512C3298.77 32.9852 3293.94 26.6044 3288.59 20.3959C3286.12 17.579 3283.53 15.1072 3280.71 12.5778C3276.29 8.55371 3273.07 3.4375 3268.64 -0.644043C3265.77 -3.23096 3262.26 -5.58789 3259.67 -8.46216C3258.06 -10.2443 3257.66 -12.3712 3256.22 -14.2682C3255.19 -15.6478 3253.46 -18.0048 3252.08 -18.9246C3250.47 -20.0167 3248.12 -19.2119 3247.6 -21.6838C3246.33 -27.6624 3235.98 -32.6637 3232.77 -37.8949C3231.62 -39.792 3230.7 -42.2639 3229.09 -43.9309C3226.15 -47.0352 3221.61 -47.6676 3218.39 -50.7719C3213.22 -55.8306 3208.62 -61.1193 3203.85 -66.5804C3201.26 -69.5697 3198.33 -71.9266 3196.14 -75.2607C3193.5 -79.2848 3191.14 -83.4238 3188.38 -87.4478C3180.91 -98.2551 3174.7 -108.2 3173.43 -121.594C3172.8 -127.918 3171.48 -134.299 3170.33 -140.565C3169.06 -147.233 3168.95 -155.914 3164.46 -161.432C3161.07 -165.571 3154.35 -169.825 3149.57 -172.24C3142.62 -175.746 3138.13 -180.575 3133.3 -186.726C3128.13 -193.337 3126.58 -201.328 3124.45 -209.203C3123.47 -212.825 3121.75 -216.159 3120.71 -219.78C3119.62 -223.517 3119.45 -227.426 3118.18 -231.048C3116.29 -236.681 3113.3 -242.2 3110.88 -247.661C3107.66 -254.904 3106.51 -262.665 3104.67 -270.368C3103.87 -273.702 3102.14 -276.519 3100.99 -279.681C3099.38 -284.165 3098.52 -288.879 3097.08 -293.362C3094.38 -301.641 3092.37 -309.746 3090.24 -318.139C3088.06 -326.819 3087.94 -339.466 3091.22 -347.859C3093 -352.343 3094.96 -356.712 3096.91 -361.081C3097.54 -362.461 3098.52 -364.013 3098.64 -365.565C3098.75 -367.404 3098.23 -369.474 3098.18 -371.371C3097.95 -376.2 3097.43 -381.316 3098.64 -386.087C3099.21 -388.272 3100.3 -390.399 3099.73 -392.871C3098.92 -396.262 3094.09 -397.297 3091.74 -399.654C3080.01 -411.266 3072.53 -427.707 3066.61 -442.883C3065.29 -446.218 3063.45 -448.977 3062.36 -452.311C3061.44 -455.128 3058.79 -458.692 3058.74 -461.566C3058.68 -465.13 3056.55 -467.545 3055.92 -471.052C3054.94 -476.915 3051.38 -483.066 3048.1 -488.01C3044.36 -493.586 3041.49 -499.622 3037.41 -504.968C3033.21 -510.487 3030.22 -516.236 3026.94 -522.272C3019.47 -536.011 3011.71 -549.462 3005.33 -563.776C2999.4 -577.228 2994.11 -590.967 2991.64 -605.569C2990.55 -611.835 2991.35 -619.135 2991.35 -625.459C2991.35 -635.519 2990.61 -646.154 2991.47 -656.271C2992.39 -666.964 2993.42 -677.829 2992.73 -688.578C2992.45 -692.832 2989.28 -698.236 2984.8 -699.328C2989.57 -699.098 2994.4 -699.443 2999.17 -699.328C3001.3 -699.271 3007.68 -697.431 3010.15 -697.834C3014.58 -698.581 3013.89 -706.457 3013.95 -710.481C3014.12 -720.656 3013.95 -730.831 3013.95 -740.948C3013.95 -743.822 3014.18 -746.754 3013.66 -749.571C3012.28 -757.332 3011.07 -765.207 3009.69 -773.025C3009.06 -776.704 3007.45 -783.373 3004.75 -786.132C3002.8 -788.144 2999.58 -788.431 2998.25 -791.306C2996.93 -794.18 2999.17 -798.779 3000.15 -801.423C3002.45 -807.862 3005.44 -814.243 3008.83 -820.164C3013.03 -827.464 3017.63 -834.478 3021.19 -842.123C3024.13 -848.389 3024.76 -855.46 3027.06 -861.956C3029.59 -869.027 3031.77 -880.352 3039.3 -884.261C3041.78 -885.525 3044.59 -885.755 3047.01 -887.192C3050.34 -889.204 3051.84 -892.654 3053.45 -895.988C3054.88 -898.977 3058.22 -902.369 3058.97 -905.415C3059.77 -908.577 3058.28 -912.486 3058.79 -915.763C3059.02 -917.085 3060 -917.89 3060.23 -919.327C3060.46 -920.477 3060.17 -922.374 3060.17 -923.581C3060.17 -930.537 3058.74 -940.194 3061.15 -946.345C3063.51 -952.381 3066.32 -954.681 3071.9 -957.383C3073.45 -958.13 3074.6 -959.107 3075.87 -960.314C3077.59 -961.982 3079.55 -963.764 3080.64 -965.948C3082.48 -969.685 3081.79 -974.226 3083.57 -977.963C3084.72 -980.262 3086.91 -982.849 3089.15 -984.171C3092.2 -985.953 3096.45 -986.816 3099.67 -988.425C3102.26 -989.69 3104.96 -990.207 3107.66 -991.184C3110.59 -992.219 3113.12 -993.771 3116 -995.093C3120.48 -997.163 3129.97 -998.37 3130.14 -1004.23C3130.66 -1018.26 3130.14 -1032.4 3130.14 -1046.43C3130.14 -1049.94 3130.14 -1053.44 3130.14 -1056.95C3130.03 -1063.16 3131.81 -1068.33 3134.11 -1074.08C3139.34 -1086.84 3143.59 -1100.01 3149.29 -1112.59C3152.51 -1119.61 3158.03 -1127.02 3157.85 -1134.96L3194.19 -1214H-820.686V2884.75C-807.347 2884.75 -794.009 2884.69 -780.671 2884.86C-764.975 2885.04 -752.27 2881.99 -737.322 2877.73C-722.603 2873.54 -707.195 2868.48 -693.972 2860.83C-687.648 2857.16 -682.301 2853.71 -674.482 2854.68C-666.318 2855.72 -662.581 2866.93 -656.947 2872.91C-646.656 2883.77 -629.523 2880.03 -615.725 2879.86C-596.177 2879.63 -574.848 2884.23 -556.163 2890.09C-548.459 2892.51 -539.49 2893.6 -531.326 2892.05C-522.875 2890.44 -519.77 2885.61 -514.021 2879.69C-506.834 2872.22 -499.648 2875.21 -488.724 2874.98C-480.215 2874.8 -471.476 2872.27 -463.255 2872.04C-449.514 2871.7 -434.624 2881.76 -423.527 2888.54C-413.466 2894.69 -397.713 2903.14 -385.582 2902.17C-374.601 2901.3 -362.011 2896.19 -353.789 2888.83C-352.237 2887.45 -351.892 2885.9 -349.995 2884.98C-346.603 2883.37 -342.808 2884.81 -340.048 2886.42C-332.344 2890.84 -326.653 2898.83 -318.776 2903.49C-305.783 2911.13 -290.95 2915.1 -277.382 2921.65C-272.667 2923.9 -269.448 2925.33 -266.86 2929.47C-262.836 2935.97 -259.329 2942.41 -249.613 2939.02C-245.818 2937.69 -242.196 2933.96 -239.207 2931.43C-233.86 2926.89 -228.57 2924.3 -222.534 2920.79C-215.75 2916.88 -209.54 2912.51 -202.469 2909.01C-197.524 2906.54 -191.488 2904.47 -187.521 2900.73C-184.991 2898.37 -183.554 2894.64 -181.082 2892.22C-178.839 2889.98 -177.057 2888.66 -175.102 2886.01C-173.09 2883.37 -170.848 2880.49 -170.043 2877.33C-169.411 2874.92 -170.618 2873.02 -168.893 2870.78C-160.902 2873.42 -151.818 2872.73 -143.654 2871.76C-133.938 2870.61 -123.244 2871.07 -113.815 2868.59C-108.986 2867.33 -104.847 2865.26 -100.88 2862.33C-99.7297 2861.47 -96.9701 2858.25 -95.5328 2857.73C-92.3132 2856.58 -88.0588 2857.5 -84.7242 2857.5C-78.285 2857.5 -70.9835 2858.48 -64.8892 2860.09C-60.6923 2861.24 -57.7027 2865.61 -53.6782 2867.62C-48.1589 2870.32 -42.0648 2870.26 -36.0281 2870.03C-26.5418 2869.63 -17.0555 2866.76 -7.79919 2865.15C-0.612671 2863.88 6.17145 2862.9 13.4155 2861.24C21.522 2859.34 29.5709 2858.19 37.5049 2856.29C49.8083 2853.36 63.8364 2855.03 76.5422 2855.03C82.694 2855.03 87.5233 2854.97 93.3301 2856.81C100.747 2859.17 107.876 2858.99 115.177 2860.55C123.859 2862.33 131.275 2866.7 139.842 2868.82C148.753 2871.01 159.619 2872.33 168.818 2872.5C183.478 2872.85 196.127 2873.08 209.81 2868.08C216.996 2865.43 222.286 2862.44 229.99 2862.5C235.797 2862.5 241.028 2862.21 246.663 2863.94C251.779 2865.49 255.459 2867.16 260.748 2867.5C271.729 2868.25 282.078 2870.84 292.656 2873.77C296.624 2874.86 300.705 2874.86 304.155 2877.28C307.03 2879.29 308.754 2881.18 311.974 2882.91C317.666 2885.96 323.358 2889.12 326.98 2894.64C334.166 2905.62 338.421 2917.92 344.342 2929.59C348.137 2936.95 349.114 2933.61 354.806 2930.74C356.818 2929.7 359.118 2929.36 361.073 2928.38C363.257 2927.29 364.637 2925.45 367.282 2924.76C377.573 2922.06 394.821 2923.44 403.445 2930.1C407.699 2933.38 409.424 2938.9 412.011 2943.33C415.461 2949.13 416.84 2948.56 423.165 2949.65C427.534 2950.45 430.639 2951.89 435.238 2951.95C441.965 2952.06 448.749 2951.89 455.475 2951.89C466.916 2951.89 481.232 2954.31 492.385 2952.01C499.917 2950.51 505.724 2949.36 513.715 2949.42C520.902 2949.48 529.238 2948.56 536.08 2946.78C551.43 2942.81 562.814 2932.23 571.61 2919.41C574.772 2914.81 576.957 2910.62 580.809 2906.25C586.271 2900.1 588.398 2895.04 590.755 2886.99C595.355 2871.41 603.921 2857.9 609.958 2843.3C616.167 2828.18 628.01 2815.94 635.254 2801.57C637.899 2796.33 638.991 2790.59 642.786 2785.64C645.833 2781.62 648.593 2780.35 649.397 2775.07C649.972 2771.39 651.582 2764.49 651.64 2760.69C656.182 2761.67 661.586 2758.11 666.53 2758.22C673.774 2758.39 679.179 2761.38 686.308 2762.76C697.174 2764.83 708.902 2765.52 719.653 2762.53C726.323 2760.69 732.187 2757.47 736.959 2752.42C738.051 2751.27 739.661 2748.1 741.5 2747.47C744.605 2746.32 754.034 2747.18 756.851 2748.45C760.818 2750.23 759.611 2750.75 761.163 2754.54C763.52 2760.18 766.222 2762.07 770.132 2766.21C777.548 2774.15 782.723 2783.11 793.531 2786.85C802.615 2770.41 820.783 2760.81 835.673 2750.46C841.307 2746.55 846.769 2742.7 853.668 2741.55C863.845 2739.83 882.587 2738.68 889.429 2745.86C895.638 2752.47 900.755 2759.37 908.056 2765.24C911.563 2768.05 914.093 2769.6 917.37 2772.59C919.612 2774.61 919.842 2775.24 922.199 2776.44C925.994 2778.34 929.788 2778.46 933.468 2780.47C947.841 2788.46 960.892 2800.47 971.413 2813.06C976.587 2819.27 982.969 2821.97 989.466 2826.52C994.008 2829.68 997.285 2833.99 1001.77 2837.15C1010.11 2843.01 1015.68 2851.64 1022.06 2859.86C1030.29 2870.38 1037.93 2879.86 1044.95 2891.07C1050.29 2899.64 1053.91 2900.27 1063.86 2899.81C1069.15 2899.58 1070.13 2897.05 1074.32 2895.27C1077.14 2894.06 1080.53 2894.06 1083.52 2892.97C1093.07 2889.52 1101.46 2887.11 1111.58 2887.34C1119.74 2887.51 1123.25 2887.34 1128.6 2880.49C1131.64 2876.59 1134.12 2872.56 1137.11 2868.71C1139.81 2865.2 1140.56 2863.36 1144.47 2862.39C1150.16 2860.95 1150.96 2864 1155.73 2859.63C1158.09 2857.44 1159.7 2853.76 1162.06 2851.41C1163.67 2849.8 1164.76 2850.08 1165.85 2847.96C1167.86 2843.93 1165.62 2832.67 1165.68 2827.95C1165.68 2823.93 1164.53 2821.46 1163.73 2817.78C1162.52 2812.49 1164.76 2811.97 1168.27 2808.41C1174.59 2802.03 1180.69 2795.3 1187.76 2789.26C1193.16 2784.61 1199.2 2780.35 1204.2 2775.35C1209.66 2769.89 1212.13 2761.15 1217.6 2756.21C1219.61 2754.37 1222.31 2750.69 1225.36 2750.75C1228.63 2750.81 1230.59 2748.79 1231.16 2744.66C1234.84 2737.58 1239.33 2731.09 1244.56 2725.11C1248.18 2720.4 1247.89 2720.97 1247.72 2714.42C1247.49 2704.19 1245.77 2691.08 1248.24 2681.13C1249.45 2676.19 1252.49 2668.72 1256.92 2665.61C1264.05 2660.67 1266.87 2666.01 1273.36 2668.37C1306.25 2680.21 1287.05 2632.04 1309.7 2627.1C1322.98 2624.22 1316.02 2630.32 1324.07 2636.7C1327.69 2639.57 1324.19 2639.17 1329.99 2638.54C1333.73 2638.08 1340.63 2637.62 1344.14 2636.29C1347.53 2617.21 1346.78 2598.53 1346.95 2579.15C1347.07 2568.98 1349.2 2559.44 1351.96 2549.89C1354.2 2542.13 1353.62 2534.2 1357.3 2526.96C1360.81 2520.11 1366.16 2514.65 1369.38 2507.58C1372.02 2501.83 1373.69 2495.45 1376.62 2489.88C1380.01 2483.44 1386.34 2479.76 1388.64 2472.75C1390.02 2468.67 1392.55 2463.61 1393.7 2459.52C1397.2 2446.88 1390.48 2432.22 1396.4 2420.26C1399.62 2413.82 1401.57 2407.44 1404.04 2400.77C1405.88 2395.83 1409.91 2391.35 1411.12 2386.17C1412.38 2380.71 1411.46 2373.99 1411.46 2368.35C1411.46 2350.99 1418.59 2335.3 1423.25 2318.57C1426.41 2307.3 1432.45 2297.36 1436.35 2286.38C1438.88 2279.19 1441.13 2271.78 1444.23 2264.82C1447.57 2257.29 1450.61 2248.03 1456.02 2241.77C1461.71 2235.27 1465.96 2238.38 1473.09 2236.42C1473.38 2231.25 1476.54 2229.41 1479.47 2225.61C1482.69 2221.53 1485.11 2216.65 1488.39 2212.51C1493.96 2205.49 1500.52 2199.17 1505.92 2192.04C1519.83 2173.7 1527.6 2151.86 1541.62 2133.58C1546.63 2127.03 1551.74 2122.43 1555.54 2115.07C1558.53 2109.26 1562.61 2104.15 1565.54 2098.34C1569.16 2091.21 1572.96 2083.85 1575.31 2076.73C1576.98 2071.72 1577.21 2072.3 1581.52 2069.02C1584.97 2066.38 1588.02 2063.16 1591.47 2060.57C1600.67 2053.5 1607.22 2047.24 1618.66 2044.25C1621.42 2043.5 1624.24 2043.04 1626.71 2041.49C1630.79 2038.96 1632.81 2035.11 1635.16 2031.08C1643.85 2016.25 1656.21 2009.7 1669.26 1999.18C1679.03 1991.36 1679.84 1978.31 1692.02 1974.17C1700.48 1971.3 1707.95 1969.23 1715.65 1964.63C1721.17 1961.35 1724.16 1956.81 1730.37 1954.17C1735.55 1951.98 1742.56 1949.85 1748.08 1948.88C1753.6 1947.9 1759.69 1950.08 1765.27 1948.59C1765.67 1939.51 1774.93 1930.65 1779.24 1922.95C1783.09 1916.05 1786.02 1908.52 1790.11 1901.8C1794.19 1895.07 1797.52 1893.23 1803.56 1889.21C1809.94 1884.95 1814.89 1878.34 1820.81 1873.92C1827.59 1868.86 1832.36 1867.3 1838.28 1860.58C1846.16 1851.61 1855.93 1844.94 1863.41 1835.51C1867.66 1830.11 1873.64 1824.36 1874.97 1817.58C1876.69 1808.61 1872.03 1794.24 1877.09 1786.54C1882.15 1778.83 1895.43 1778.03 1903.37 1776.88C1928.49 1773.26 1953.56 1768.26 1977.42 1759.46C1980.87 1758.2 1984.2 1756.82 1987.59 1755.44C2006.91 1747.27 2026.17 1736.35 2046.93 1732.16C2062.68 1728.99 2076.82 1739.86 2092.34 1741.01C2103.61 1741.87 2114.94 1741.18 2126.09 1743.19C2129.66 1743.82 2153.29 1750.67 2146.79 1759.06C2148.57 1756.7 2150.07 1758.2 2152.6 1756.59C2155.01 1755.09 2156.33 1752.73 2158.52 1751.13C2164.67 1746.41 2172.83 1744.69 2179.91 1741.7C2194.28 1735.6 2210.66 1727.38 2226.59 1727.56C2236.31 1727.67 2246.02 1727.44 2255.74 1727.56C2263.9 1727.67 2265.45 1726.98 2271.38 1721.12C2285 1707.72 2299.26 1684.44 2321.51 1685.94C2328.52 1686.4 2331.28 1690.54 2336.17 1695.42C2345.66 1704.85 2351.87 1714.39 2358.36 1725.95C2362.04 1732.44 2365.03 1740.66 2371.99 1742.5C2381.99 1745.15 2397 1741.24 2406.77 1739.4C2418.96 1737.16 2435.75 1733.13 2445.81 1725.08C2450.29 1721.52 2452.25 1717.21 2457.65 1713.99C2466.05 1708.93 2471.22 1704.62 2480.71 1703.53C2493.18 1702.09 2505.89 1697.78 2518.13 1695.13C2526.41 1693.35 2541.25 1693.81 2546.13 1686.17C2541.48 1681.85 2540.9 1677.37 2534.29 1674.96C2530.95 1673.69 2527.85 1674.09 2524.57 1672.31C2518.25 1668.86 2512.27 1665.18 2505.49 1662.25C2499.85 1659.84 2493.87 1657.19 2488.64 1654.55C2480.76 1650.58 2480.99 1648.28 2477.49 1640.46C2471.85 1627.76 2469.44 1616.55 2455.06 1612.7C2445.12 1610.05 2428.16 1604.88 2424.54 1592.98C2421.49 1583.04 2423.1 1562.28 2426.43 1552.68C2429.77 1543.08 2433.56 1534.92 2439.2 1526.53C2441.04 1523.77 2442.24 1520.38 2444.14 1517.73C2446.67 1514.23 2450.41 1512.67 2453.17 1509.11C2455.47 1506.06 2456.44 1503.02 2459.49 1500.2C2463.17 1496.86 2467.83 1495.26 2471.05 1491.35C2473.46 1488.36 2474.15 1485.66 2477.37 1483.13C2480.88 1480.37 2485.94 1478.7 2489.39 1475.83C2495.02 1471.17 2495.83 1463.75 2495.88 1456.91C2495.88 1453.23 2494.91 1449.15 2495.31 1445.53C2496.17 1437.42 2503.59 1432.94 2509.28 1426.79C2511.52 1424.38 2513.71 1421.27 2516.93 1420.18C2525.44 1417.25 2533.6 1425.47 2542.11 1422.88C2542.4 1415.75 2537.51 1409.26 2537.57 1402.13C2537.57 1396.9 2540.33 1392.93 2542.17 1388.22C2544.64 1381.72 2543.49 1374.25 2546.65 1368.33C2549.98 1362.12 2556.94 1358.67 2559.47 1351.83C2561.31 1346.77 2562.52 1344.18 2567.81 1343.78C2570.57 1343.61 2575.4 1343.09 2577.81 1341.54C2580.4 1339.87 2581.95 1336.19 2583.79 1333.89C2586.03 1331.02 2587.35 1329.87 2588.27 1326.71C2591.26 1315.9 2595.81 1305.44 2600.29 1295.2C2601.5 1292.45 2601.21 1291.18 2601.79 1288.13C2602.3 1285.2 2603.51 1282.27 2604.2 1279.4C2604.78 1277.04 2605.18 1274.8 2606.27 1272.55C2607.48 1270.14 2609.43 1268.3 2610.58 1265.89C2612.77 1261.29 2613.57 1255.88 2616.04 1251.29C2618.8 1246.23 2622.94 1242.89 2628 1240.48C2630.59 1239.27 2633.52 1238.52 2635.82 1236.97C2639.27 1234.67 2641.63 1231.8 2646.17 1231.39C2647.26 1227.83 2647.89 1223.98 2648.87 1220.36C2650.02 1216.1 2649.62 1211.68 2650.54 1207.48C2650.94 1205.7 2652.9 1199.95 2654.51 1198.74C2655.2 1198.23 2657.04 1198.51 2657.9 1198.23C2658.76 1198 2659.28 1197.02 2660.6 1197.08C2663.36 1185.35 2662.15 1172.87 2662.21 1160.86C2662.21 1149.94 2662.21 1139.53 2664.11 1128.73C2665.26 1122.29 2666.81 1116.02 2668.07 1109.58C2668.82 1105.79 2668.76 1101.82 2669.74 1098.08C2673.54 1083.66 2676.81 1066.41 2672.73 1051.75C2671.01 1045.43 2671.41 1038.93 2671.41 1032.44C2671.41 1027.15 2670.26 1020.71 2672.67 1015.77C2673.59 1013.81 2674.74 1011.97 2675.66 1010.02C2676.35 1008.52 2678.77 1006.68 2679.17 1005.36C2679.8 1003.29 2678.08 1001.97 2676.81 1000.3C2674 996.565 2671.75 992.541 2670.14 988.115C2668.07 982.653 2668.19 975.927 2669.4 970.236C2670.49 965.062 2672.9 960.176 2676.01 955.865C2677.27 954.14 2678.94 951.036 2680.67 949.771C2681.81 948.966 2683.37 948.966 2684.69 948.679C2688.31 947.817 2691.76 946.38 2695.56 946.207C2698.26 946.092 2701.13 946.667 2703.83 946.38C2707.92 945.862 2711.54 943.793 2715.74 943.678C2719.64 943.62 2723.61 943.678 2727.52 943.678C2729.3 943.678 2730.17 943.218 2731.03 944.827C2731.49 945.747 2731.37 951.266 2730.86 952.128C2730.05 953.623 2728.04 953.22 2727.12 954.543C2726.2 955.865 2727.41 957.819 2726.66 959.314C2722.35 959.544 2718.27 960.119 2714.36 962.131C2710.62 964.085 2710.73 965.35 2709.07 968.339C2707.69 970.811 2707.34 971.386 2704.93 973.168C2702.97 974.605 2697.17 977.652 2697.8 980.584C2708.78 983.113 2716.14 971.501 2726.37 970.179C2730.86 969.604 2735.4 968.512 2739.77 967.304C2745.29 965.752 2749.25 961.843 2754.03 959.084C2756.27 957.819 2758.68 958.279 2761.33 958.279C2764.89 958.279 2768.69 957.819 2772.19 958.567C2775.41 959.256 2778.17 961.211 2781.22 962.303C2785.59 963.798 2790.25 965.35 2794.73 966.27C2799.5 967.247 2808.64 969.431 2813.47 966.959C2816.46 965.407 2815.2 964.085 2814.45 961.211C2812.96 955.52 2812.27 949.541 2811.17 943.793C2809.97 937.584 2808.7 931.491 2808.82 925.11C2808.93 920.511 2809.1 915.969 2807.67 911.543C2805.6 905.047 2802.09 899.586 2800.54 892.918C2799.56 888.721 2799.67 884.812 2799.62 880.443C2799.33 857.506 2799.62 847.734 2799.62 824.797C2799.62 817.898 2799.62 811 2799.62 804.102C2799.62 801.4 2799.5 799.503 2800.94 797.261C2803.7 792.95 2806.11 789.443 2806.23 784.039C2806.34 778.291 2814.11 774.497 2816.52 769.265C2817.21 767.828 2817.21 765.759 2817.73 764.207C2818.82 760.987 2820.37 757.596 2822.38 754.836C2831.64 742.304 2848.31 747.651 2861.08 742.879C2864.58 741.557 2866.71 737.993 2869.93 736.671C2874.47 734.889 2882.52 736.154 2886.95 737.361C2891.84 738.683 2898.45 740.177 2902.7 742.937C2905.06 744.489 2907.01 746.788 2909.49 748.34C2912.24 750.065 2916.04 750.238 2918.45 752.25V711.894C2918.45 706.663 2917.02 698.96 2918.74 694.074C2920.35 689.417 2926.56 692.119 2928.92 688.555C2931.04 685.336 2926.79 680.622 2926.33 677.575C2925.58 672.574 2926.45 666.883 2926.33 661.824C2926.33 659.87 2925.99 658.49 2927.02 657.053C2928.17 655.501 2931.79 654.293 2933.4 653.086C2936.74 650.557 2936.56 649.005 2938.17 645.268C2940.36 640.382 2942.37 635.495 2944.33 630.494C2945.3 627.965 2946.34 623.711 2948.7 622.044C2953.47 618.595 2962.61 620.262 2968.13 618.825C2971.86 617.847 2976.52 616.41 2979.11 613.364C2980.95 611.236 2981.64 607.96 2983.02 605.545C2984.51 602.844 2986.76 600.832 2988.42 598.302C2994.4 589.104 3004.23 583.126 3014.52 579.217C3030.1 573.296 3050.34 574.675 3063.11 562.546C3068.22 557.717 3073.22 554.038 3079.55 550.819C3085.87 547.599 3093.23 548.002 3100.3 545.645C3108.75 542.828 3116.69 538.459 3124.51 534.263C3131.87 530.239 3138.36 532.193 3146.64 531.791C3152.62 531.503 3157.62 528.974 3160.38 523.685C3162.11 520.351 3164.52 519.029 3166.65 516.327C3171.02 510.866 3171.82 498.909 3179.99 498.564C3184.01 498.392 3189.07 497.817 3193.04 498.564C3196.55 499.196 3198.44 501.323 3202.24 501.266C3204.77 501.266 3207.58 500.576 3209.48 502.473C3210.8 503.738 3211.15 506.152 3212.07 507.762C3213.22 509.716 3214.89 511.786 3216.73 513.223C3220.17 515.925 3224.2 515.81 3228.4 515.81C3234.43 515.81 3240.41 515.752 3246.45 515.81C3249.15 515.81 3250.36 515.925 3252.72 514.545C3254.84 513.338 3255.99 511.038 3257.72 509.889C3261.4 507.474 3267.72 511.153 3271.52 509.141C3274.51 507.532 3276.86 500.461 3277.38 497.184C3278.07 492.93 3275.42 484.192 3278.13 480.858C3279.62 479.019 3283.42 479.191 3285.26 477.582C3287.73 475.397 3286.98 471.546 3286.64 468.441C3286 462.865 3284.16 458.266 3279.56 455.047C3275.94 452.46 3272.32 451.943 3272.09 446.942C3271.92 443.665 3271.23 438.779 3273.13 435.962C3274.51 433.892 3281.4 428.374 3284.05 428.719C3282.96 425.902 3292.04 416.531 3292.21 416.359C3295.43 413.427 3299.05 411.415 3302.45 408.771C3305.84 406.127 3307.39 404 3308.77 400.033C3310.09 396.239 3311.76 394.112 3314.86 391.525C3320.61 386.811 3326.48 382.557 3331.65 377.154C3333.66 375.027 3336.37 370.14 3339.41 369.221C3342.69 368.186 3348.15 369.221 3351.55 369.221C3356.72 369.336 3362.12 371.118 3367.24 371.922C3370.86 372.497 3376.78 374.452 3380.58 373.187C3383.97 372.095 3389.61 364.737 3390.81 361.23C3391.96 357.838 3390.87 355.481 3394.26 352.78C3401.68 346.916 3400.82 358.758 3405.65 361.69C3408.58 363.472 3414.67 362.955 3418.01 362.725C3421.86 362.495 3424.04 359.965 3426.92 357.723C3431.92 353.872 3436.4 353.01 3442.38 351.86C3442.56 349.618 3439.74 349.445 3438.47 347.951C3436.46 345.594 3436.23 341.11 3436 338.293C3435.02 327.946 3435.77 311.677 3446.52 306.043C3448.02 305.239 3450.49 304.836 3452.16 304.261C3456.53 302.709 3461.07 301.272 3465.61 300.007C3470.38 298.685 3475.67 296.214 3479.52 299.72C3482.05 302.02 3483.78 305.124 3487.69 304.376C3489.99 303.917 3493.61 301.272 3494.76 299.375C3495.91 297.363 3495.28 295.064 3495.33 292.707C3495.45 285.464 3499.59 276.553 3506.08 273.047C3507.75 272.127 3509.59 271.494 3511.32 270.69C3517.18 267.93 3522.36 263.504 3528.39 261.09C3529.94 260.457 3530.4 260.917 3531.73 259.71C3533.22 258.388 3533.91 256.203 3535.29 254.651C3540.41 249.017 3548.8 242.694 3556.39 242.292C3559.09 242.177 3563.64 243.671 3565.76 241.544C3567.31 240.05 3566.45 237.75 3566.97 235.796C3567.49 233.899 3567.95 232.692 3568 230.622C3568.12 226.426 3568 222.229 3568 218.033C3568 214.871 3568.81 210.387 3568 207.398C3567.43 205.213 3567.54 205.673 3565.13 205.558L3565.76 205.731Z" stroke="white" stroke-width="0.480623" stroke-miterlimit="10"/>
</svg>
