<svg width="1642" height="1728" viewBox="0 0 1642 1728" fill="none" xmlns="http://www.w3.org/2000/svg">
<path fill-rule="evenodd" clip-rule="evenodd" d="M659 559.69L655.701 577.294L644.703 579.494V586.096L639.204 592.698L638.104 597.099L632.605 595.998L629.306 586.096L624.906 588.297L622.707 584.996L619.407 588.297L618.308 591.597L621.607 595.998L620.507 600.399L611.709 599.299L599.611 601.5L601.811 607.001L600.711 614.703L606.21 615.803L608.41 618.004V621.304L610.609 622.405L608.41 625.705L605.11 633.407H601.811L598.511 637.808L593.012 642.209L594.112 655.412L587.513 681.819V709.325L588.613 718.127L583.114 720.328L567.717 732.43L555.619 747.834V752.235L551.22 753.335L542.422 758.837L533.623 767.639H518.226L514.927 769.839L508.328 766.538L506.129 768.739L457.738 776.441L454.438 775.341H451.139L428.043 770.939L419.245 774.24L415.945 777.541L391.75 780.842L375.253 785.243L368.654 783.042L363.155 784.143L360.956 783.042L358.756 785.243L345.559 779.742L315.864 789.644L305.966 794.045L301.567 799.546L290.569 800.646L232.28 829.253L224.581 836.955L215.783 842.456L209.184 852.359L175.091 876.564L155.294 893.068L149.795 890.868L140.997 907.371L132.199 915.073L76.109 950.282H69.5102L60.7119 952.482L47.5144 951.382L36.5164 943.68L23.3189 937.079L4.62238 922.775L2.42279 917.274L7.92176 896.369L15.6203 879.865V873.264L32.1172 857.86L51.9135 845.757L82.7078 813.85L93.7057 795.145V786.343L92.6059 780.842L98.1049 769.839L105.803 757.736L110.203 754.436L121.201 733.531L120.101 725.829L126.7 712.626L128.899 702.723L135.498 696.122L154.194 687.32L166.292 675.217L171.791 671.916L201.486 665.315L225.681 656.513L255.376 623.505L261.974 601.5L274.072 582.795L288.369 572.893L307.066 580.595L310.365 578.394H315.864L336.76 599.299L351.058 601.5L358.756 600.399L373.053 593.798L387.351 591.597L426.943 580.595L441.241 573.993L465.436 555.289L478.634 539.885L490.731 534.384L505.029 535.484L510.528 532.183L520.426 513.479L539.122 510.178L546.821 506.877L534.723 495.875L535.823 489.273L545.721 494.775L549.021 491.474H551.22L552.32 494.775L560.019 495.875L558.919 478.271L562.218 477.17L569.917 480.471L575.416 484.872L577.615 483.772L578.715 477.17L586.414 474.97L595.212 482.672L596.312 487.073L600.711 485.973L607.31 490.374H610.609L612.809 491.474L611.709 495.875L616.108 496.975L617.208 485.973L621.607 487.073L627.106 482.672H629.306L631.505 489.273L637.004 490.374L641.403 493.674L646.902 500.276L643.603 510.178L648.002 513.479L644.703 516.78L639.204 515.68L637.004 516.78V528.883L641.403 531.083L642.503 537.685L645.803 542.086L656.8 547.587L660.1 555.289L659 559.69Z" fill="#75A1CB" stroke="url(#paint0_linear_0_9)" stroke-opacity="0.44" stroke-width="2.88374" stroke-miterlimit="10"/>
<path fill-rule="evenodd" clip-rule="evenodd" d="M1003.24 553.089L1001.04 557.49V576.195L995.537 580.596L991.138 588.298L985.639 591.598L984.539 594.899L981.24 600.401L983.439 610.303L981.24 612.503L984.539 619.105L973.541 635.609L966.942 640.01L963.643 651.012L957.044 654.313L959.244 657.614V662.015L949.346 666.416H938.348L928.449 671.917L926.25 675.218L920.751 673.018L917.452 678.519L914.152 677.419L908.653 679.619L895.456 678.519L889.957 680.719L882.258 691.722L876.759 693.922L870.16 701.624L860.262 702.725L858.063 703.825L856.963 701.624L827.268 715.928L812.971 744.534L801.973 741.234L777.778 739.033L776.678 736.833L762.381 730.231L760.181 724.73L748.083 720.329H740.385L743.684 715.928L740.385 710.426L750.283 670.817L743.684 602.601L732.686 567.393L738.185 559.691L764.58 543.187L777.778 532.184L784.376 520.082L788.776 515.681H790.975L804.173 505.778L808.572 501.377L845.965 477.172L873.46 481.573L893.256 494.776L937.248 515.681L952.645 522.282L968.042 526.683L977.94 535.485L996.637 546.488L1003.24 553.089Z" fill="#75A1CB" stroke="url(#paint1_linear_0_9)" stroke-opacity="0.44" stroke-width="2.88374" stroke-miterlimit="10"/>
<path fill-rule="evenodd" clip-rule="evenodd" d="M1092.32 965.731L1106.62 960.23L1115.42 959.129L1114.32 965.731H1117.62L1123.11 967.931L1128.61 964.631L1127.51 970.132L1131.91 977.834L1124.21 982.235L1126.41 987.736L1125.31 991.037L1135.21 985.536L1137.41 988.836L1125.31 1010.84L1114.32 1002.04L1106.62 991.037L1108.82 989.937L1101.12 981.135L1089.02 989.937L1079.12 995.438L1053.83 965.731L1054.93 963.53L1060.43 960.23L1061.53 956.929L1072.52 952.528L1092.32 965.731Z" fill="#75A1CB" stroke="url(#paint2_linear_0_9)" stroke-opacity="0.44" stroke-width="2.88374" stroke-miterlimit="10"/>
<path fill-rule="evenodd" clip-rule="evenodd" d="M508.327 991.038L510.527 989.938L516.026 986.637H518.225L530.323 996.539L545.72 1006.44L557.818 1011.94L591.911 1017.44L604.009 1011.94L616.107 1021.85L617.207 1025.15L626.005 1035.05L631.504 1037.25L637.003 1044.95L645.801 1061.45L662.298 1073.56L657.899 1096.66L672.196 1116.47L666.697 1165.98L671.097 1183.58L674.396 1186.88L677.695 1198.99L678.795 1211.09L676.596 1215.49L677.695 1218.79L674.396 1226.49L676.596 1243L679.895 1254L694.192 1274.9L704.09 1270.5L709.589 1262.8L715.088 1267.2L724.987 1258.4L731.585 1257.3L772.278 1270.5L787.675 1287.01L794.274 1309.01L825.068 1357.42L827.267 1358.52L862.461 1342.02L866.86 1343.12H875.658L885.556 1359.62L883.357 1365.13L881.157 1366.23L883.357 1371.73L886.656 1375.03L889.956 1378.33L885.556 1379.43L886.656 1383.83L884.457 1398.13L863.561 1405.84L877.858 1415.74L889.956 1447.65L893.255 1463.05L886.656 1475.15L882.257 1476.25L878.958 1488.35L886.656 1498.26L893.255 1500.46L899.854 1515.86L907.552 1514.76L944.945 1543.37L939.446 1552.17V1554.37L937.247 1556.57H925.149L919.65 1562.07L913.051 1560.97L911.952 1563.17L900.954 1567.57L898.754 1570.87L895.455 1571.97L888.856 1576.38L881.157 1582.98V1587.38L877.858 1589.58L873.459 1598.38L870.159 1597.28L851.463 1578.58L833.866 1571.97L829.467 1567.57L825.068 1559.87L817.369 1554.37L814.07 1542.27L817.369 1535.67H821.768L815.17 1512.56L817.369 1498.26L800.872 1485.05H793.174L787.675 1490.56L777.777 1493.86L774.477 1497.16L766.779 1498.26L755.781 1504.86L756.88 1507.06L754.681 1511.46L733.785 1524.66L732.685 1533.47H724.987L721.687 1536.77L720.587 1529.06L709.589 1525.76L701.891 1532.36L695.292 1534.57L693.092 1542.27L696.392 1546.67L691.993 1555.47L673.296 1568.67L668.897 1570.87L665.598 1576.38V1579.68L661.198 1585.18L662.298 1588.48L660.099 1589.58V1595.08L652.4 1598.38V1600.58L654.6 1603.88L650.2 1611.58L654.6 1613.78L646.901 1624.79L650.2 1631.39L648.001 1634.69L657.899 1650.09L655.699 1652.29L657.899 1655.59L640.302 1667.7L608.408 1641.29L566.616 1636.89L550.119 1630.29L534.722 1631.39L538.021 1653.39L501.728 1626.99L498.429 1620.39L510.527 1611.58L517.125 1601.68L516.026 1598.38L522.624 1590.68L525.924 1589.58L527.023 1584.08L535.822 1578.58V1568.67L549.019 1555.47L547.92 1552.17L551.219 1548.87L560.017 1545.57L562.217 1542.27L563.317 1543.37L567.716 1534.57L572.115 1530.16H577.614L583.113 1524.66L590.812 1529.06V1498.26L601.81 1494.96L610.608 1493.86L615.007 1494.96L627.105 1491.66L629.304 1468.55L641.402 1465.25L637.003 1457.55L630.404 1450.95L624.905 1441.04V1437.74L615.007 1442.14L599.61 1439.94L594.111 1443.24H589.712L580.913 1446.54L557.818 1442.14L549.019 1438.84L540.221 1442.14L539.121 1447.65L527.023 1459.75L517.125 1465.25L506.127 1476.25L498.429 1469.65L490.73 1470.75L480.832 1467.45H476.433L472.034 1469.65L468.734 1475.15L462.136 1478.45L459.936 1486.15L461.036 1488.35L456.637 1491.66L454.437 1498.26H445.639L443.439 1500.46V1504.86H441.239L443.439 1508.16L437.94 1513.66L429.142 1516.96L391.749 1463.05L389.549 1458.65L391.749 1452.05L389.549 1447.65L380.751 1442.14L375.252 1431.14L368.653 1425.64L367.553 1416.84L364.254 1413.54L363.154 1402.53L357.655 1392.63L352.156 1394.83L349.957 1386.03L343.358 1379.43L337.859 1362.93L333.46 1357.42L335.659 1340.92L333.46 1334.32L334.559 1326.62L332.36 1323.32L336.759 1310.11V1300.21L340.058 1296.91L344.458 1295.81L348.857 1289.21L341.158 1265L338.959 1243L334.559 1231.99L342.258 1194.59L346.657 1176.98L343.358 1171.48L347.757 1148.37L354.356 1134.07L365.354 1125.27L367.553 1115.37L369.753 1112.07L368.653 1101.06L406.046 1070.26L445.639 1040.55L489.63 999.84L508.327 991.038Z" fill="#75A1CB" stroke="url(#paint3_linear_0_9)" stroke-opacity="0.44" stroke-width="2.88374" stroke-miterlimit="10"/>
<path fill-rule="evenodd" clip-rule="evenodd" d="M1619.08 1270.55L1616.88 1268.35L1617.98 1265.05H1619.08L1622.37 1266.15L1619.08 1270.55Z" fill="#75A1CB" stroke="url(#paint4_linear_0_9)" stroke-opacity="0.44" stroke-width="2.88374" stroke-miterlimit="10"/>
<path fill-rule="evenodd" clip-rule="evenodd" d="M1344.17 1436.69L1347.47 1442.19L1345.27 1447.69L1348.57 1448.79L1350.77 1452.09L1347.47 1450.99L1345.27 1455.39L1340.87 1449.89L1336.47 1448.79V1452.09L1325.48 1450.99L1326.57 1453.19L1323.28 1456.49V1459.8L1322.18 1465.3H1314.48L1311.18 1466.4L1304.58 1459.8H1293.58L1292.48 1458.69L1289.18 1459.8L1286.98 1457.59L1279.28 1455.39L1277.08 1459.8L1267.19 1458.69L1263.89 1455.39L1261.69 1454.29L1259.49 1456.49L1257.29 1457.59L1255.09 1462L1245.19 1466.4L1241.89 1471.9L1234.19 1475.2L1227.59 1474.1L1224.29 1478.5L1216.6 1482.9V1485.1H1214.4L1215.5 1489.5L1213.3 1488.4L1210 1495L1212.2 1501.6L1219.89 1503.81L1229.79 1514.81L1226.49 1517.01H1217.7L1216.6 1512.61L1211.1 1510.41L1191.3 1509.31L1190.2 1508.21L1184.7 1510.41L1183.6 1508.21L1172.6 1509.31L1166 1503.81L1162.71 1498.3L1167.1 1495L1168.2 1489.5L1159.41 1479.6L1155.01 1477.4L1148.41 1475.2L1137.41 1470.8H1129.71L1119.81 1467.5L1112.11 1470.8L1115.41 1457.59L1114.31 1452.09L1122.01 1446.59L1120.91 1441.09L1122.01 1435.59L1127.51 1434.49L1124.21 1426.79L1127.51 1422.39L1124.21 1414.68L1127.51 1413.58V1411.38L1119.81 1399.28L1127.51 1394.88L1131.91 1398.18L1136.31 1395.98L1148.41 1394.88L1149.51 1391.58L1159.41 1383.88L1160.51 1381.68L1159.41 1379.48L1160.51 1376.18L1158.31 1362.97L1162.71 1360.77L1191.3 1324.46L1199 1316.76L1203.4 1318.96L1205.6 1312.36L1210 1307.96L1212.2 1295.86L1210 1294.76V1290.36L1212.2 1273.85L1214.4 1272.75L1219.89 1273.85L1225.39 1282.65L1236.39 1284.85L1241.89 1289.25L1247.39 1290.36L1266.09 1289.25L1277.08 1281.55L1280.38 1280.45L1291.38 1281.55L1312.28 1276.05L1327.67 1283.75L1334.27 1282.65L1341.97 1277.15L1348.57 1279.35L1358.47 1278.25L1363.97 1281.55L1374.97 1280.45L1392.56 1277.15L1410.16 1278.25L1415.66 1280.45L1433.25 1281.55L1454.15 1278.25L1460.75 1280.45L1469.55 1279.35L1472.85 1289.25L1488.24 1307.96L1494.84 1321.16L1501.44 1326.66L1504.74 1335.47L1526.74 1356.37L1542.13 1365.17L1552.03 1368.47L1556.43 1367.37L1570.73 1375.08H1578.43L1579.53 1381.68L1582.83 1383.88L1589.43 1387.18H1596.02L1601.52 1383.88L1605.92 1379.48L1604.82 1376.18L1607.02 1373.97V1366.27L1609.22 1365.17L1605.92 1360.77V1354.17L1602.62 1351.97H1599.32L1593.82 1348.67L1596.02 1342.07L1602.62 1340.97L1604.82 1346.47L1609.22 1347.57L1607.02 1348.67L1610.32 1356.37L1619.12 1372.87L1626.82 1382.78L1633.42 1386.08L1640.02 1380.58V1383.88L1635.62 1388.28L1629.02 1387.18L1627.92 1389.38L1626.82 1393.78L1621.32 1399.28L1622.42 1401.48L1619.12 1404.78H1615.82V1409.18L1612.52 1414.68V1417.99L1604.82 1420.19L1597.12 1425.69L1580.63 1430.09H1568.53L1565.23 1432.29L1560.83 1431.19L1555.33 1435.59L1553.13 1434.49L1548.73 1435.59L1543.23 1438.89V1443.29L1523.44 1447.69L1513.54 1459.8L1501.44 1456.49L1492.64 1457.59L1491.54 1453.19L1492.64 1450.99L1491.54 1447.69V1427.89L1484.95 1420.19L1478.35 1419.09V1409.18L1468.45 1403.68L1466.25 1401.48L1462.95 1400.38V1395.98L1459.65 1393.78L1454.15 1394.88L1449.75 1382.78L1434.35 1379.48L1427.76 1373.97L1421.16 1376.18L1414.56 1382.78L1410.16 1383.88L1403.56 1388.28L1405.76 1391.58L1406.86 1403.68L1410.16 1408.08L1429.96 1401.48L1432.16 1404.78V1409.18L1442.05 1422.39L1444.25 1428.99L1450.85 1435.59L1453.05 1434.49L1454.15 1437.79L1460.75 1436.69L1462.95 1459.8H1458.55L1457.45 1457.59H1455.25L1454.15 1459.8L1455.25 1467.5H1450.85L1443.15 1471.9L1442.05 1469.7L1438.75 1470.8L1435.45 1474.1L1427.76 1476.3V1478.5L1423.36 1480.7L1418.96 1481.8L1414.56 1487.3L1405.76 1482.9L1401.36 1484L1396.96 1480.7L1382.66 1484L1379.36 1481.8L1372.77 1479.6L1373.87 1477.4L1387.06 1470.8L1389.26 1468.6L1385.96 1467.5L1382.66 1469.7L1381.56 1464.2H1378.27L1377.17 1465.3L1376.07 1463.1L1369.47 1464.2L1368.37 1463.1L1366.17 1465.3L1365.07 1463.1L1359.57 1460.9V1455.39L1356.27 1454.29L1359.57 1446.59L1361.77 1442.19L1360.67 1441.09V1435.59L1358.47 1433.39L1344.17 1436.69ZM1344.17 1436.69L1343.07 1431.19H1339.77L1340.87 1436.69H1344.17Z" fill="#75A1CB"/>
<path d="M1344.17 1436.69L1347.47 1442.19L1345.27 1447.69L1348.57 1448.79L1350.77 1452.09L1347.47 1450.99L1345.27 1455.39L1340.87 1449.89L1336.47 1448.79V1452.09L1325.48 1450.99L1326.57 1453.19L1323.28 1456.49V1459.8L1322.18 1465.3H1314.48L1311.18 1466.4L1304.58 1459.8H1293.58L1292.48 1458.69L1289.18 1459.8L1286.98 1457.59L1279.28 1455.39L1277.08 1459.8L1267.19 1458.69L1263.89 1455.39L1261.69 1454.29L1259.49 1456.49L1257.29 1457.59L1255.09 1462L1245.19 1466.4L1241.89 1471.9L1234.19 1475.2L1227.59 1474.1L1224.29 1478.5L1216.6 1482.9V1485.1H1214.4L1215.5 1489.5L1213.3 1488.4L1210 1495L1212.2 1501.6L1219.89 1503.81L1229.79 1514.81L1226.49 1517.01H1217.7L1216.6 1512.61L1211.1 1510.41L1191.3 1509.31L1190.2 1508.21L1184.7 1510.41L1183.6 1508.21L1172.6 1509.31L1166 1503.81L1162.71 1498.3L1167.1 1495L1168.2 1489.5L1159.41 1479.6L1155.01 1477.4L1148.41 1475.2L1137.41 1470.8H1129.71L1119.81 1467.5L1112.11 1470.8L1115.41 1457.59L1114.31 1452.09L1122.01 1446.59L1120.91 1441.09L1122.01 1435.59L1127.51 1434.49L1124.21 1426.79L1127.51 1422.39L1124.21 1414.68L1127.51 1413.58V1411.38L1119.81 1399.28L1127.51 1394.88L1131.91 1398.18L1136.31 1395.98L1148.41 1394.88L1149.51 1391.58L1159.41 1383.88L1160.51 1381.68L1159.41 1379.48L1160.51 1376.18L1158.31 1362.97L1162.71 1360.77L1191.3 1324.46L1199 1316.76L1203.4 1318.96L1205.6 1312.36L1210 1307.96L1212.2 1295.86L1210 1294.76V1290.36L1212.2 1273.85L1214.4 1272.75L1219.89 1273.85L1225.39 1282.65L1236.39 1284.85L1241.89 1289.25L1247.39 1290.36L1266.09 1289.25L1277.08 1281.55L1280.38 1280.45L1291.38 1281.55L1312.28 1276.05L1327.67 1283.75L1334.27 1282.65L1341.97 1277.15L1348.57 1279.35L1358.47 1278.25L1363.97 1281.55L1374.97 1280.45L1392.56 1277.15L1410.16 1278.25L1415.66 1280.45L1433.25 1281.55L1454.15 1278.25L1460.75 1280.45L1469.55 1279.35L1472.85 1289.25L1488.24 1307.96L1494.84 1321.16L1501.44 1326.66L1504.74 1335.47L1526.74 1356.37L1542.13 1365.17L1552.03 1368.47L1556.43 1367.37L1570.73 1375.08H1578.43L1579.53 1381.68L1582.83 1383.88L1589.43 1387.18H1596.02L1601.52 1383.88L1605.92 1379.48L1604.82 1376.18L1607.02 1373.97V1366.27L1609.22 1365.17L1605.92 1360.77V1354.17L1602.62 1351.97H1599.32L1593.82 1348.67L1596.02 1342.07L1602.62 1340.97L1604.82 1346.47L1609.22 1347.57L1607.02 1348.67L1610.32 1356.37L1619.12 1372.87L1626.82 1382.78L1633.42 1386.08L1640.02 1380.58V1383.88L1635.62 1388.28L1629.02 1387.18L1627.92 1389.38L1626.82 1393.78L1621.32 1399.28L1622.42 1401.48L1619.12 1404.78H1615.82V1409.18L1612.52 1414.68V1417.99L1604.82 1420.19L1597.12 1425.69L1580.63 1430.09H1568.53L1565.23 1432.29L1560.83 1431.19L1555.33 1435.59L1553.13 1434.49L1548.73 1435.59L1543.23 1438.89V1443.29L1523.44 1447.69L1513.54 1459.8L1501.44 1456.49L1492.64 1457.59L1491.54 1453.19L1492.64 1450.99L1491.54 1447.69V1427.89L1484.95 1420.19L1478.35 1419.09V1409.18L1468.45 1403.68L1466.25 1401.48L1462.95 1400.38V1395.98L1459.65 1393.78L1454.15 1394.88L1449.75 1382.78L1434.35 1379.48L1427.76 1373.97L1421.16 1376.18L1414.56 1382.78L1410.16 1383.88L1403.56 1388.28L1405.76 1391.58L1406.86 1403.68L1410.16 1408.08L1429.96 1401.48L1432.16 1404.78V1409.18L1442.05 1422.39L1444.25 1428.99L1450.85 1435.59L1453.05 1434.49L1454.15 1437.79L1460.75 1436.69L1462.95 1459.8H1458.55L1457.45 1457.59H1455.25L1454.15 1459.8L1455.25 1467.5H1450.85L1443.15 1471.9L1442.05 1469.7L1438.75 1470.8L1435.45 1474.1L1427.76 1476.3V1478.5L1423.36 1480.7L1418.96 1481.8L1414.56 1487.3L1405.76 1482.9L1401.36 1484L1396.96 1480.7L1382.66 1484L1379.36 1481.8L1372.77 1479.6L1373.87 1477.4L1387.06 1470.8L1389.26 1468.6L1385.96 1467.5L1382.66 1469.7L1381.56 1464.2H1378.27L1377.17 1465.3L1376.07 1463.1L1369.47 1464.2L1368.37 1463.1L1366.17 1465.3L1365.07 1463.1L1359.57 1460.9V1455.39L1356.27 1454.29L1359.57 1446.59L1361.77 1442.19L1360.67 1441.09V1435.59L1358.47 1433.39L1344.17 1436.69ZM1344.17 1436.69L1343.07 1431.19H1339.77L1340.87 1436.69H1344.17Z" stroke="url(#paint5_linear_0_9)" stroke-opacity="0.44" stroke-width="2.88374" stroke-miterlimit="10"/>
<path fill-rule="evenodd" clip-rule="evenodd" d="M994.437 1285.95L1009.83 1316.76L1016.43 1324.46L1024.13 1343.17L1042.83 1347.57L1086.82 1365.17L1112.11 1393.78L1119.81 1397.08V1399.28L1127.51 1411.38V1413.58L1124.21 1414.68L1127.51 1422.38L1124.21 1426.79L1127.51 1434.49L1122.01 1435.59L1120.91 1441.09L1122.01 1446.59L1114.31 1452.09L1115.41 1457.59L1112.11 1470.8L1109.92 1466.39L1103.32 1467.5L1100.02 1465.29L1092.32 1466.39L1090.12 1471.9L1083.52 1475.2L1080.22 1480.7V1485.1L1084.62 1486.2L1081.32 1490.6L1074.72 1489.5L1072.52 1487.3L1065.92 1489.5L1062.62 1492.8V1489.5L1060.42 1488.4L1051.63 1490.6L1049.43 1488.4H1037.33L1036.23 1487.3L1024.13 1485.1L1019.73 1488.4L1018.63 1485.1L1013.13 1486.2L1007.63 1490.6L1006.53 1493.9L999.936 1492.8L984.539 1502.7L964.742 1525.81L959.243 1526.91L953.744 1532.41L950.445 1533.51L944.946 1543.41L907.553 1514.81L899.855 1515.91L893.256 1500.5L886.657 1498.3L878.958 1488.4L882.258 1476.3L886.657 1475.2L893.256 1463.09L889.956 1447.69L877.859 1415.78L863.561 1405.88L884.457 1398.18L886.657 1383.88L885.557 1379.47L889.956 1378.37L886.657 1375.07L883.358 1371.77L881.158 1366.27L883.358 1365.17L885.557 1359.67L875.659 1343.17L902.054 1326.66L940.547 1310.16L966.942 1289.25L994.437 1285.95Z" fill="#75A1CB" stroke="url(#paint6_linear_0_9)" stroke-opacity="0.44" stroke-width="2.88374" stroke-miterlimit="10"/>
<path fill-rule="evenodd" clip-rule="evenodd" d="M1186.9 21.664L1191.3 55.772L1261.69 114.086L1272.69 120.687L1280.39 121.788L1282.59 141.592L1291.38 147.094L1295.78 183.402L1306.78 224.112L1299.08 241.716L1293.58 269.222L1283.68 286.826L1296.88 318.734L1270.49 352.842L1245.19 378.148L1231.99 388.05L1219.9 393.551L1200.1 388.05L1191.3 381.449L1174.81 375.947L1159.41 352.842L1130.81 318.734L1100.02 274.724L1084.62 257.119L1067.03 221.911L1035.13 187.803L1020.83 176.8L971.343 100.883L984.541 94.2811L985.641 90.9803L1001.04 77.7772L1025.23 64.5741L1040.63 45.8697L1045.03 37.0676L1061.53 23.8645H1064.83L1067.03 20.5638L1080.22 15.0625L1103.32 10.6614L1124.21 1.85938L1186.9 21.664Z" fill="#75A1CB" stroke="url(#paint7_linear_0_9)" stroke-opacity="0.44" stroke-width="2.88374" stroke-miterlimit="10"/>
<path fill-rule="evenodd" clip-rule="evenodd" d="M947.146 67.8732L971.341 100.881L1020.83 176.799L1035.13 187.801L1067.02 221.909L1084.62 257.118L1100.02 274.722L1130.81 318.732L1159.41 352.84L1174.8 375.946L1191.3 381.447L1200.1 388.048L1219.89 393.55L1237.49 401.252L1228.69 404.552L1226.49 436.46L1227.59 443.061V480.47L1231.99 506.876L1195.7 538.784L1175.9 545.385L1172.6 550.887L1169.3 551.987L1156.11 561.889L1150.61 564.09V565.19L1145.11 569.591H1139.61L1133.01 576.193L1128.61 577.293L1122.01 580.594L1116.51 576.193L1109.92 566.29L1103.32 565.19L1101.12 561.889L1084.62 559.689L1067.02 543.185L1061.52 546.486L1052.73 548.686L1043.93 547.586L1037.33 544.285L1031.83 545.385L1026.33 550.887L1021.93 549.786H1016.43L1009.83 554.187L1003.24 553.087L996.636 546.486L977.94 535.483L968.042 526.681L952.644 522.28L937.247 515.678L893.256 494.773L873.459 481.57L845.964 477.169L848.164 436.46L844.865 421.056L843.765 378.146L841.565 364.943V347.339L831.667 304.429L822.869 283.524L829.468 259.318L832.767 245.015L853.663 229.611L866.861 221.909L870.16 183.4L874.559 153.693L870.16 137.189L894.355 103.081L913.052 84.377L931.748 73.3745L947.146 67.8732Z" fill="#75A1CB" stroke="url(#paint8_linear_0_9)" stroke-opacity="0.44" stroke-width="2.88374" stroke-miterlimit="10"/>
<path fill-rule="evenodd" clip-rule="evenodd" d="M1257.29 506.877L1286.98 515.68L1325.48 537.685L1330.97 554.189L1343.07 573.993L1348.57 597.099V616.903L1340.87 636.708L1328.78 687.32L1318.88 708.225L1314.48 722.528L1310.08 729.13L1283.68 765.438L1246.29 729.13L1227.59 707.124L1221 695.022L1219.9 689.52L1208.9 677.418L1188 624.605L1186.9 604.8L1175.9 545.386L1195.7 538.785L1231.99 506.877H1257.29Z" fill="#75A1CB" stroke="url(#paint9_linear_0_9)" stroke-opacity="0.44" stroke-width="2.88374" stroke-miterlimit="10"/>
<path fill-rule="evenodd" clip-rule="evenodd" d="M1003.24 553.089L1009.83 554.189L1016.43 549.788H1021.93L1026.33 550.888L1031.83 545.387L1037.33 544.286L1043.93 547.587L1052.73 548.687L1061.52 546.487L1067.02 543.186L1084.62 559.69L1101.12 561.891L1103.32 565.191L1109.92 566.292L1116.51 576.194L1122.01 580.595L1109.92 595.999L1107.72 602.6L1094.52 605.901L1091.22 613.603L1087.92 616.903L1083.52 615.803L1074.72 630.107L1050.53 626.806H1034.03L1020.83 630.107L997.736 649.911L990.037 658.713L974.64 688.42L954.844 699.423H951.545L940.547 692.821L939.447 695.022L942.746 699.423L939.447 700.523L933.948 709.325L927.349 708.225L921.85 721.428L902.054 730.23L893.256 731.33L880.058 729.13L861.361 717.027L860.262 702.724L870.16 701.623L876.759 693.922L882.258 691.721L889.956 680.719L895.455 678.518L908.653 679.618L914.152 677.418L917.451 678.518L920.75 673.017L926.249 675.217L928.449 671.916L938.347 666.415H949.345L959.243 662.014V657.613L957.044 654.312L963.642 651.011L966.942 640.009L973.54 635.608L984.538 619.104L981.239 612.502L983.439 610.302L981.239 600.4L984.538 594.898L985.638 591.598L991.137 588.297L995.536 580.595L1001.04 576.194V557.49L1003.24 553.089Z" fill="#75A1CB" stroke="url(#paint10_linear_0_9)" stroke-opacity="0.44" stroke-width="2.88374" stroke-miterlimit="10"/>
<path fill-rule="evenodd" clip-rule="evenodd" d="M1122.01 580.596L1128.61 577.295L1133.01 576.195L1139.61 569.593H1145.11L1150.61 565.192V564.092L1156.11 561.892L1169.31 551.989L1172.6 550.889L1175.9 545.388L1186.9 604.802L1188 624.606L1208.9 677.419L1219.9 689.522L1221 695.023L1227.59 707.126L1246.29 729.131L1283.68 765.439L1290.28 792.946L1267.19 783.044L1221 797.347L1211.1 795.146L1202.3 796.247L1191.3 791.846L1189.1 779.743L1186.9 778.643L1185.8 775.342L1189.1 774.241L1185.8 770.941L1184.7 766.54L1182.5 765.439L1181.4 761.038H1179.2L1177 757.738L1171.5 754.437L1145.11 710.426L1137.41 687.321L1134.11 684.02L1124.21 659.815L1107.72 602.601L1109.92 596L1122.01 580.596Z" fill="#75A1CB" stroke="url(#paint11_linear_0_9)" stroke-opacity="0.44" stroke-width="2.88374" stroke-miterlimit="10"/>
<path fill-rule="evenodd" clip-rule="evenodd" d="M610.61 622.451L608.411 621.351V618.05L606.211 615.849L600.712 614.749L601.812 607.047L599.612 601.546L611.71 599.346L620.508 600.446L621.608 596.045L618.309 591.644L619.409 588.343L622.708 585.042L624.908 588.343L629.307 586.142L632.606 596.045L638.105 597.145L639.205 592.744L644.704 586.142V579.541L655.702 577.34L659.001 559.736L693.095 563.037L694.195 560.836L699.694 563.037L713.991 558.636L717.29 556.435L727.189 555.335L738.187 559.736L732.688 567.438L743.685 602.646L750.284 670.862L740.386 710.472L715.091 729.176L698.594 744.58L685.396 745.68L679.897 741.279L617.209 719.274L605.111 718.173H588.614L587.515 709.371V681.865L594.113 655.459L593.014 642.256L598.513 637.855L601.812 633.454H605.111L608.411 625.752L610.61 622.451ZM610.61 622.451L616.109 625.752L615.01 622.451H610.61Z" fill="#75A1CB"/>
<path d="M610.61 622.451L608.411 621.351V618.05L606.211 615.849L600.712 614.749L601.812 607.047L599.612 601.546L611.71 599.346L620.508 600.446L621.608 596.045L618.309 591.644L619.409 588.343L622.708 585.042L624.908 588.343L629.307 586.142L632.606 596.045L638.105 597.145L639.205 592.744L644.704 586.142V579.541L655.702 577.34L659.001 559.736L693.095 563.037L694.195 560.836L699.694 563.037L713.991 558.636L717.29 556.435L727.189 555.335L738.187 559.736L732.688 567.438L743.685 602.646L750.284 670.862L740.386 710.472L715.091 729.176L698.594 744.58L685.396 745.68L679.897 741.279L617.209 719.274L605.111 718.173H588.614L587.515 709.371V681.865L594.113 655.459L593.014 642.256L598.513 637.855L601.812 633.454H605.111L608.411 625.752L610.61 622.451ZM610.61 622.451L616.109 625.752L615.01 622.451H610.61Z" stroke="url(#paint12_linear_0_9)" stroke-opacity="0.44" stroke-width="2.88374" stroke-miterlimit="10"/>
<path fill-rule="evenodd" clip-rule="evenodd" d="M1107.72 602.644L1101.12 645.554L1102.22 662.058L1089.02 677.462L1085.72 693.966L1069.23 691.765L1005.44 722.572L995.539 723.673L991.14 739.076L990.04 742.377L979.042 743.477L973.543 741.277L969.144 739.076L957.046 736.876L948.248 726.973L947.148 723.673L942.749 724.773L938.35 722.572L937.25 717.071L921.853 721.472L927.352 708.269L933.951 709.369L939.45 700.567L942.749 699.467L939.45 695.066L940.55 692.865L951.548 699.467H954.847L974.643 688.464L990.04 658.757L997.739 649.955L1020.83 630.151L1034.03 626.85H1050.53L1074.72 630.151L1083.52 615.847L1087.92 616.948L1091.22 613.647L1094.52 605.945L1107.72 602.644Z" fill="#75A1CB" stroke="url(#paint13_linear_0_9)" stroke-opacity="0.44" stroke-width="2.88374" stroke-miterlimit="10"/>
<path fill-rule="evenodd" clip-rule="evenodd" d="M1107.72 602.644L1124.21 659.858L1134.11 684.063L1137.41 687.364L1145.11 710.469L1171.5 754.48L1177 757.781L1179.2 761.081H1181.4L1182.5 765.482L1184.7 766.583L1185.8 770.984L1189.1 774.284L1185.8 775.385L1186.9 778.686L1189.1 779.786L1191.3 791.889L1188 820.495L1185.8 822.696L1186.9 827.097V838.099L1171.5 845.801L1172.6 856.804L1164.91 859.004L1163.81 862.305L1164.91 866.706L1168.2 871.107H1163.81V874.408L1159.41 876.609L1151.71 892.012L1147.31 893.112L1148.41 897.513L1146.21 898.614L1149.51 905.215L1148.41 914.017L1140.71 921.719L1137.41 920.619L1135.21 922.819H1131.91L1126.41 936.022L1120.91 938.223L1111.02 937.123L1108.82 934.922L1112.12 929.421L1113.21 926.12L1112.12 925.02L1107.72 923.92L1108.82 916.218H1113.21L1115.41 914.017L1108.82 907.416L1107.72 903.015L1111.02 900.814L1109.92 898.614L1107.72 897.513L1104.42 898.614L1102.22 893.112L1109.92 886.511L1112.12 881.01L1111.02 879.909L1098.92 877.709L1095.62 879.909L1092.32 877.709L1095.62 874.408L1094.52 873.308L1091.22 868.907L1085.72 856.804L1083.52 854.603L1080.22 856.804L1076.92 854.603L1078.02 849.102L1084.62 842.501L1086.82 834.799L1097.82 820.495L1098.92 807.292L1092.32 799.59H1089.02L1084.62 792.989L1071.42 788.588L1070.32 786.387L1064.82 785.287L1061.52 779.786L1058.23 780.886L1059.32 775.385L1051.63 766.583V758.881L1053.83 757.781V752.279L1059.32 750.079L1058.23 747.878L1060.42 746.778L1059.32 744.577H1061.52L1063.72 739.076L1074.72 732.475L1076.92 725.873L1082.42 719.272L1085.72 710.469V693.966L1089.02 677.462L1102.22 662.058L1101.12 645.554L1107.72 602.644Z" fill="#75A1CB" stroke="url(#paint14_linear_0_9)" stroke-opacity="0.44" stroke-width="2.88374" stroke-miterlimit="10"/>
<path fill-rule="evenodd" clip-rule="evenodd" d="M991.138 739.077L995.537 723.673L1005.43 722.573L1069.22 691.766L1085.72 693.966V710.47L1082.42 719.272L1076.92 725.874L1074.72 732.475L1063.72 739.077L1061.52 744.578H1059.32L1060.42 746.779L1058.22 747.879L1059.32 750.079L1053.83 752.28V757.781L1051.63 758.882V766.583L1048.33 773.185L1034.03 783.087L1031.83 787.488L1027.43 786.388L1020.83 779.786H1018.63L1016.43 783.087L1013.13 781.987L1006.53 767.684L1003.24 765.483L995.537 775.385H993.337L987.838 768.784L1002.14 758.882L999.936 754.481L1001.04 747.879L999.936 744.578L991.138 739.077Z" fill="#75A1CB" stroke="url(#paint15_linear_0_9)" stroke-opacity="0.44" stroke-width="2.88374" stroke-miterlimit="10"/>
<path fill-rule="evenodd" clip-rule="evenodd" d="M921.85 721.473L937.247 717.072L938.347 722.573L942.746 724.774L947.145 723.673L948.245 726.974L957.043 736.876L969.141 739.077L973.54 741.277L975.74 746.779V759.982L979.039 769.884L976.84 775.385L970.241 777.586L968.041 776.486L964.742 779.786L962.542 778.686L960.343 783.087L951.544 784.187L950.445 786.388H941.646L921.85 790.789L910.852 811.694L894.355 802.892L866.86 799.591L851.463 801.792L849.263 798.491L843.764 799.591L838.266 795.19L822.868 767.684L812.97 744.578L827.268 715.971L856.962 701.668L858.062 703.869L860.261 702.768L861.361 717.072L880.058 729.175L893.255 731.375L902.054 730.275L921.85 721.473Z" fill="#75A1CB" stroke="url(#paint16_linear_0_9)" stroke-opacity="0.44" stroke-width="2.88374" stroke-miterlimit="10"/>
<path fill-rule="evenodd" clip-rule="evenodd" d="M698.593 744.578L715.09 729.174L740.385 710.47L743.684 715.971L740.385 720.372H748.084L760.181 724.773L762.381 730.274L776.678 736.876L777.778 739.076L801.974 741.277L812.971 744.578L822.87 767.683L838.267 795.19L843.766 799.591L849.265 798.49L851.464 801.791L866.861 799.591L894.356 802.891L888.857 807.292L896.556 823.796L909.753 842.501L940.548 879.909L929.55 886.511L925.15 894.213L927.35 918.418L931.749 942.624L940.548 955.827L969.142 949.226L970.242 983.334L972.442 992.136L968.042 997.637L963.643 994.336L959.244 1004.24H953.745L952.645 1006.44L947.146 1005.34L946.047 1008.64L949.346 1018.54L959.244 1026.24L961.444 1032.85L948.246 1043.85L939.448 1046.05L921.851 1060.35L867.961 1070.25L853.664 1074.66L837.167 1083.46L830.568 1085.66L806.373 1083.46L803.073 1084.56L799.774 1087.86H787.676L777.778 1084.56L774.479 1086.76H770.079L760.181 1077.96L746.984 1075.76L734.886 1079.06L723.888 1085.66L695.293 1112.06L683.196 1120.87L672.198 1116.46L657.9 1096.66L662.3 1073.55L645.803 1061.45L637.004 1044.95L631.505 1037.25L626.006 1035.05L617.208 1025.14L616.108 1021.84L604.01 1011.94L607.31 1007.54L612.809 1005.34L615.008 998.737L621.607 991.036L633.705 981.133L663.399 962.429L662.3 960.228L672.198 953.627L673.298 945.925L701.892 904.115L708.491 898.614L713.99 886.511L715.09 879.909L718.389 876.609L707.391 835.899L698.593 744.578ZM815.171 1011.94L825.069 1004.24L832.768 1010.84L865.762 993.236L860.263 987.735L854.764 975.632L855.863 969.03L854.764 956.928L851.464 945.925L849.265 944.825L845.965 940.424L840.466 939.323V936.023L827.269 928.321L821.77 932.722L819.57 927.221L815.171 933.822L812.971 936.023L808.572 933.822L807.473 938.223L809.672 939.323L810.772 944.825L808.572 950.326L809.672 953.627L807.473 954.727L809.672 956.928L806.373 959.128L807.473 960.228L806.373 966.83L809.672 967.93L806.373 970.131L807.473 975.632L800.874 976.732L804.173 977.832L799.774 980.033L803.073 982.233L795.375 986.635L796.475 993.236L794.275 994.336L796.475 996.537L797.574 1005.34L805.273 1006.44L808.572 1004.24L815.171 1011.94Z" fill="#75A1CB" stroke="url(#paint17_linear_0_9)" stroke-opacity="0.44" stroke-width="2.88374" stroke-miterlimit="10"/>
<path fill-rule="evenodd" clip-rule="evenodd" d="M698.594 744.577L707.392 835.899L687.596 828.197L666.7 829.297L632.606 855.704L622.708 865.606L613.91 876.608L615.009 900.814L612.81 916.218L616.109 927.22L623.808 941.524L619.409 943.724L623.808 945.925L628.207 953.627L630.407 954.727L624.908 958.028L628.207 969.03L626.007 985.534L621.608 991.035L615.009 998.737L612.81 1005.34L607.311 1007.54L604.011 1011.94L591.914 1017.44L557.82 1011.94L545.722 1006.44L530.325 996.537L518.228 986.634H516.028L510.529 989.935L509.429 984.434L511.629 980.033L509.429 967.93L513.828 940.423L507.23 912.917L503.93 872.207L508.329 825.997L522.627 813.894V797.39L518.228 790.788L524.826 767.683H533.625L542.423 758.881L551.221 753.38L555.621 752.279V747.878L567.718 732.475L583.115 720.372L588.614 718.171H605.111L617.209 719.271L679.897 741.277L685.396 745.678L698.594 744.577Z" fill="#75A1CB" stroke="url(#paint18_linear_0_9)" stroke-opacity="0.44" stroke-width="2.88374" stroke-miterlimit="10"/>
<path fill-rule="evenodd" clip-rule="evenodd" d="M991.139 739.078L999.937 744.58L1001.04 747.881L999.937 754.482L1002.14 758.883L987.839 768.785L993.338 775.387L992.238 777.588L996.638 784.189L990.039 807.295L993.338 823.798L991.139 835.901L997.737 841.403L1001.04 850.205L996.638 859.007V866.708L995.538 867.809L975.742 860.107L968.043 855.706L954.845 852.405L949.346 849.104L942.748 848.004V843.603L933.949 834.801L931.75 831.5L933.949 821.598L930.65 820.498L928.45 816.097L915.253 814.996L910.854 811.696L921.852 790.791L941.648 786.39H950.446L951.546 784.189L960.344 783.089L962.544 778.688L964.744 779.788L968.043 776.487L970.243 777.588L976.841 775.387L979.041 769.886L975.742 759.983V746.78L973.542 741.279L979.041 743.479L990.039 742.379L991.139 739.078Z" fill="#75A1CB" stroke="url(#paint19_linear_0_9)" stroke-opacity="0.44" stroke-width="2.88374" stroke-miterlimit="10"/>
<path fill-rule="evenodd" clip-rule="evenodd" d="M1016.43 783.085V790.787L1013.13 791.887L1016.43 798.489L1007.64 803.99L1005.44 808.391L1003.24 814.993L1004.34 821.594L1002.14 823.795V830.396H1013.13L1020.83 834.798V839.199L1016.43 841.399V845.8L1017.53 852.402L1008.74 866.705H996.638V859.003L1001.04 850.201L997.737 841.399L991.139 835.898L993.338 823.795L990.039 807.291L996.638 784.186L992.238 777.584L993.338 775.384H995.538L1003.24 765.481L1006.54 767.682L1013.13 781.985L1016.43 783.085Z" fill="#75A1CB" stroke="url(#paint20_linear_0_9)" stroke-opacity="0.44" stroke-width="2.88374" stroke-miterlimit="10"/>
<path fill-rule="evenodd" clip-rule="evenodd" d="M47.5137 951.428L60.7112 952.528L69.5096 950.328H76.1083L132.198 915.12L140.996 907.418L149.795 890.914L155.294 893.114L175.09 876.611L209.183 852.405L215.782 842.503L224.581 837.001L232.279 829.299L290.568 800.693L301.566 799.592L305.965 794.091L315.864 789.69L345.558 779.788L358.755 785.289L360.955 783.089L363.155 784.189L368.654 783.089L375.252 785.289L391.749 780.888L415.945 777.587L419.244 774.286L428.043 770.986L451.138 775.387H454.438L457.737 776.487L506.128 768.785L508.328 766.585L514.926 769.885L518.226 767.685H524.824L518.226 790.79L522.625 797.392V813.896L508.328 825.999L503.928 872.21L507.228 912.919L513.827 940.426L509.427 967.932L511.627 980.035L509.427 984.436L510.527 989.937L508.328 991.037L489.631 999.84L445.639 1040.55L406.047 1070.26L368.654 1101.06L369.753 1112.07L367.554 1115.37L359.855 1108.77H354.356L347.758 1099.96L343.358 1105.46L338.959 1104.36L337.859 1099.96L321.363 1115.37H316.963L303.766 1106.56L300.466 1108.77L297.167 1107.66L298.267 1106.56L292.768 1102.16L287.269 1099.96L283.969 1101.06L280.67 1097.76L272.972 1095.56L269.672 1096.66L266.373 1104.36L259.774 1110.97L257.574 1108.77L245.477 1104.36L239.978 1099.96H235.579L237.778 1094.46L233.379 1088.96L225.68 1084.56L221.281 1076.86L214.682 1077.96L209.183 1080.16L192.687 1081.26L193.786 1083.46L188.287 1088.96L180.589 1086.76L172.89 1092.26L160.793 1075.76L159.693 1073.56L137.697 1057.05L123.399 1050.45V1048.25L117.901 1049.35L115.701 1046.05L108.002 1042.75L92.6052 1029.55L87.1063 1016.34L79.4077 1013.04L71.7092 1004.24H69.5096L48.6135 966.832L47.5137 951.428Z" fill="#75A1CB" stroke="url(#paint21_linear_0_9)" stroke-opacity="0.44" stroke-width="2.88374" stroke-miterlimit="10"/>
<path fill-rule="evenodd" clip-rule="evenodd" d="M1058.23 780.888L1053.83 809.495L1047.23 807.294L1049.43 811.695L1036.23 818.297L1034.03 825.999L1020.83 834.801L1013.13 830.4H1002.14V823.798L1004.34 821.598L1003.24 814.996L1005.44 808.395L1007.64 803.994L1016.43 798.492L1013.13 791.891L1016.43 790.79V783.089L1018.63 779.788H1020.83L1027.43 786.389L1031.83 787.49L1034.03 783.089L1048.33 773.186L1051.63 766.585L1059.33 775.387L1058.23 780.888Z" fill="#75A1CB" stroke="url(#paint22_linear_0_9)" stroke-opacity="0.44" stroke-width="2.88374" stroke-miterlimit="10"/>
<path fill-rule="evenodd" clip-rule="evenodd" d="M1058.22 780.889L1061.52 779.788L1064.82 785.29L1070.32 786.39L1071.42 788.591L1084.62 792.992L1089.02 799.593H1092.32L1098.92 807.295L1097.82 820.498L1086.82 834.801L1084.62 842.503L1078.02 849.105L1076.92 854.606H1073.62L1071.42 848.004L1065.92 846.904L1067.02 833.701L1060.42 828.2L1063.72 824.899L1061.52 822.699L1056.02 820.498L1053.83 812.796L1049.43 811.696L1047.23 807.295L1053.83 809.495L1058.22 780.889Z" fill="#75A1CB" stroke="url(#paint23_linear_0_9)" stroke-opacity="0.44" stroke-width="2.88374" stroke-miterlimit="10"/>
<path fill-rule="evenodd" clip-rule="evenodd" d="M1220.99 797.391L1267.19 783.088L1290.28 792.99L1291.38 816.096L1300.18 842.502L1312.28 862.307L1275.98 887.613L1261.69 864.507L1256.19 859.006L1248.49 857.906L1246.29 859.006L1235.29 854.605L1233.09 844.703L1229.79 835.9L1230.89 833.7L1234.19 832.6L1225.39 813.895L1217.69 806.193V801.792L1220.99 799.592V797.391Z" fill="#75A1CB" stroke="url(#paint24_linear_0_9)" stroke-opacity="0.44" stroke-width="2.88374" stroke-miterlimit="10"/>
<path fill-rule="evenodd" clip-rule="evenodd" d="M1191.3 791.89L1202.3 796.291L1211.09 795.19L1220.99 797.391V799.591L1217.69 801.792V806.193L1225.39 813.895L1234.19 832.599L1230.89 833.699L1229.79 835.9L1233.09 844.702L1235.29 854.604L1246.29 859.005L1248.49 857.905L1256.19 859.005L1261.69 864.507L1275.98 887.612L1312.28 862.306L1315.58 867.807L1323.27 872.208L1322.17 874.409H1317.77L1314.48 879.91H1308.98L1312.28 886.512L1307.88 894.214H1311.18L1323.27 906.316L1321.07 909.617L1332.07 930.522L1356.27 919.52L1363.97 936.023L1389.26 973.432L1402.46 1003.14L1423.35 1029.55L1467.35 1075.76L1472.85 1080.16L1471.75 1081.26L1473.95 1091.16L1470.65 1101.06L1459.65 1102.16L1451.95 1107.66L1448.65 1113.16L1438.75 1120.87L1431.05 1119.77L1414.56 1129.67L1407.96 1137.37L1390.36 1145.07L1346.37 1156.08L1337.57 1137.37L1326.57 1123.07L1318.87 1131.87L1311.18 1136.27L1307.88 1141.77L1304.58 1157.18L1300.18 1164.88L1294.68 1170.38L1288.08 1173.68H1284.78L1278.18 1181.38L1271.58 1184.68L1255.09 1203.39L1259.49 1217.69L1250.69 1219.89L1246.29 1215.49L1244.09 1216.59L1235.29 1209.99L1229.79 1218.79H1224.29L1219.89 1224.29L1213.29 1226.49L1204.5 1233.09L1203.4 1241.9L1190.2 1247.4L1185.8 1239.69L1179.2 1235.29L1174.8 1226.49L1167.1 1219.89L1171.5 1201.19L1155.01 1186.88L1144.01 1173.68L1133.01 1183.58L1120.91 1189.08L1107.71 1184.68L1114.31 1176.98L1109.91 1167.08L1100.02 1154.97L1082.42 1149.47V1146.17L1070.32 1131.87L1062.62 1129.67L1057.12 1092.26L1048.32 1060.35L1058.22 1051.55L1054.92 1047.15L1042.83 1040.55L1032.93 1029.55L1014.23 1022.94H1005.43L993.335 1014.14L988.936 1017.44L973.539 1019.64L972.439 1021.84L973.539 1026.24L970.24 1032.85H961.441L959.242 1026.24L949.343 1018.54L946.044 1008.64L947.144 1005.34L952.643 1006.44L953.743 1004.24H959.242L963.641 994.337L968.04 997.638L972.439 992.137L970.24 983.334L969.14 949.226L977.938 931.622L979.038 920.62L1009.83 906.316L1016.43 911.818L1012.03 912.918L1006.53 916.219L1001.03 927.221L1008.73 933.823L1035.13 943.725L1045.03 941.525L1056.02 944.825L1062.62 942.625H1074.72L1083.52 945.926L1084.62 943.725L1081.32 942.625V940.424L1094.52 932.723L1101.12 927.221L1112.11 925.021L1113.21 926.121L1112.11 929.422L1108.81 934.923L1111.01 937.124L1120.91 938.224L1126.41 936.023L1131.91 922.82H1135.21L1137.41 920.62L1140.71 921.72L1148.41 914.018L1149.51 905.216L1146.21 898.615L1148.41 897.514L1147.31 893.113L1151.71 892.013L1159.4 876.609L1163.8 874.409V871.108H1168.2L1164.9 866.707L1163.8 862.306L1164.9 859.005L1172.6 856.805L1171.5 845.802L1186.9 838.1V827.098L1185.8 822.697L1188 820.496L1191.3 791.89ZM1092.32 965.73L1072.52 952.527L1061.52 956.928L1060.42 960.229L1054.92 963.53L1053.82 965.73L1079.12 995.437L1089.02 989.936L1101.12 981.134L1108.81 989.936L1106.61 991.036L1114.31 1002.04L1125.31 1010.84L1137.41 988.836L1135.21 985.535L1125.31 991.036L1126.41 987.736L1124.21 982.234L1131.91 977.833L1127.51 970.131L1128.61 964.63L1123.11 967.931L1117.61 965.73H1114.31L1115.41 959.129L1106.61 960.229L1092.32 965.73Z" fill="#75A1CB" stroke="url(#paint25_linear_0_9)" stroke-opacity="0.44" stroke-width="2.88374" stroke-miterlimit="10"/>
<path fill-rule="evenodd" clip-rule="evenodd" d="M910.854 811.696L915.253 814.996L928.45 816.097L930.65 820.498L933.949 821.598L931.75 831.5L933.949 834.801L942.748 843.603V848.004L949.346 849.104L954.845 852.405L968.043 855.706L975.741 860.107L995.538 867.809L996.638 866.709H1008.74L1015.33 872.21L1024.13 884.313L1021.93 887.613L1025.23 889.814L1027.43 897.516L1016.43 908.518V911.819L1009.84 906.318L979.041 920.621L977.941 931.624L969.143 949.228L940.548 955.829L931.75 942.626L974.642 914.02L970.243 896.416L960.344 886.513L961.444 878.811L955.945 875.511L942.748 876.611L940.548 879.912L909.754 842.503L896.556 823.798L888.858 807.295L894.357 802.894L910.854 811.696Z" fill="#75A1CB" stroke="url(#paint26_linear_0_9)" stroke-opacity="0.44" stroke-width="2.88374" stroke-miterlimit="10"/>
<path fill-rule="evenodd" clip-rule="evenodd" d="M1049.43 811.696L1053.83 812.796L1056.03 820.498L1061.52 822.699L1063.72 824.899L1060.43 828.2L1067.02 833.701L1065.92 846.904L1071.42 848.004L1064.82 854.606L1060.43 851.305L1016.43 845.804V841.403L1020.83 839.202V834.801L1034.03 825.999L1036.23 818.297L1049.43 811.696Z" fill="#75A1CB" stroke="url(#paint27_linear_0_9)" stroke-opacity="0.44" stroke-width="2.88374" stroke-miterlimit="10"/>
<path fill-rule="evenodd" clip-rule="evenodd" d="M621.608 991.036L626.007 985.535L628.206 969.031L624.907 958.029L630.406 954.728L628.206 953.628L623.807 945.926L619.408 943.725L623.807 941.525L616.109 927.221L612.809 916.219L615.009 900.815L613.909 876.61L622.707 865.607L632.606 855.705L666.699 829.298L687.595 828.198L707.392 835.9L718.39 876.61L715.09 879.91L713.99 886.512L708.491 898.615L701.893 904.116L673.298 945.926L672.198 953.628L662.3 960.229L663.4 962.43L633.705 981.134L621.608 991.036Z" fill="#75A1CB" stroke="url(#paint28_linear_0_9)" stroke-opacity="0.44" stroke-width="2.88374" stroke-miterlimit="10"/>
<path fill-rule="evenodd" clip-rule="evenodd" d="M1071.43 848.004L1073.62 854.605H1076.92L1080.22 856.806L1083.52 854.605L1085.72 856.806L1091.22 868.909L1094.52 873.31L1095.62 874.41L1092.32 877.711L1095.62 879.911L1098.92 877.711L1111.02 879.911L1112.12 881.011L1109.92 886.513L1102.22 893.114L1097.82 885.412L1093.42 884.312L1085.72 879.911L1079.12 882.112L1078.02 884.312H1074.72L1073.62 888.713L1074.72 890.914L1071.43 893.114V896.415L1064.83 894.214L1063.73 890.914H1051.63L1049.43 886.513L1042.83 890.914L1040.63 889.813L1038.43 892.014L1028.53 884.312H1024.13L1015.34 872.209L1008.74 866.708L1017.54 852.405L1016.44 845.803L1060.43 851.304L1064.83 854.605L1071.43 848.004Z" fill="#75A1CB" stroke="url(#paint29_linear_0_9)" stroke-opacity="0.44" stroke-width="2.88374" stroke-miterlimit="10"/>
<path fill-rule="evenodd" clip-rule="evenodd" d="M1356.27 919.52L1332.07 930.522L1321.08 909.617L1323.28 906.317L1311.18 894.214H1307.88L1312.28 886.512L1308.98 879.91H1314.48L1317.78 874.409H1322.18L1323.28 872.209L1340.87 899.715L1356.27 919.52Z" fill="#75A1CB" stroke="url(#paint30_linear_0_9)" stroke-opacity="0.44" stroke-width="2.88374" stroke-miterlimit="10"/>
<path fill-rule="evenodd" clip-rule="evenodd" d="M931.75 942.625L927.351 918.419L925.152 894.214L929.551 886.512L940.549 879.91L942.748 876.609L955.946 875.509L961.445 878.81L960.345 886.512L970.243 896.414L974.642 914.018L931.75 942.625Z" fill="#75A1CB" stroke="url(#paint31_linear_0_9)" stroke-opacity="0.44" stroke-width="2.88374" stroke-miterlimit="10"/>
<path fill-rule="evenodd" clip-rule="evenodd" d="M1102.22 893.111L1104.42 898.613L1107.72 897.513L1109.92 898.613L1111.02 900.813L1107.72 903.014L1108.82 907.415L1115.42 914.016L1113.22 916.217H1108.82L1107.72 923.919L1112.12 925.019L1101.12 927.22L1094.52 932.721L1081.32 940.423V942.623L1084.62 943.723L1083.52 945.924L1074.72 942.623H1062.62L1056.03 944.824L1045.03 941.523L1035.13 943.723L1008.73 933.821L1001.04 927.22L1006.54 916.217L1012.03 912.916L1016.43 911.816V908.515L1027.43 897.513L1025.23 889.811L1021.93 887.61L1024.13 884.309H1028.53L1038.43 892.011L1040.63 889.811L1042.83 890.911L1049.43 886.51L1051.63 890.911H1063.72L1064.82 894.212L1071.42 896.412V893.111L1074.72 890.911L1073.62 888.711L1074.72 884.309H1078.02L1079.12 882.109L1085.72 879.908L1093.42 884.309L1097.82 885.41L1102.22 893.111Z" fill="#75A1CB" stroke="url(#paint32_linear_0_9)" stroke-opacity="0.44" stroke-width="2.88374" stroke-miterlimit="10"/>
<path fill-rule="evenodd" clip-rule="evenodd" d="M815.169 1011.94L808.57 1004.24L805.271 1006.44L797.572 1005.34L796.472 996.539L794.273 994.339L796.472 993.239L795.373 986.637L803.071 982.236L799.772 980.035L804.171 977.835L800.871 976.735L807.47 975.634L806.37 970.133L809.67 967.933L806.37 966.832L807.47 960.231L806.37 959.131L809.67 956.93L807.47 954.729L809.67 953.629L808.57 950.328L810.77 944.827L809.67 939.326L807.47 938.226L808.57 933.825L812.969 936.025L815.169 933.825L819.568 927.223L821.768 932.724L827.267 928.323L840.464 936.025V939.326L845.963 940.426L849.262 944.827L851.462 945.927L854.761 956.93L855.861 969.033L854.761 975.634L860.26 987.737L865.759 993.239L832.766 1010.84L825.067 1004.24L815.169 1011.94Z" fill="#75A1CB" stroke="url(#paint33_linear_0_9)" stroke-opacity="0.44" stroke-width="2.88374" stroke-miterlimit="10"/>
<path fill-rule="evenodd" clip-rule="evenodd" d="M1048.33 1060.35L1037.33 1068.05L1034.03 1076.86L1031.83 1079.06L1024.13 1080.16L1018.64 1086.76L1017.54 1094.46L1014.24 1097.76L999.938 1098.86L996.639 1105.46L984.541 1114.27L981.242 1115.37L979.042 1114.27L971.344 1116.47L976.843 1103.26L970.244 1095.56V1092.26L962.545 1088.96L957.046 1085.66L942.749 1080.16L929.552 1064.75L921.853 1060.35L939.45 1046.05L948.248 1043.85L961.446 1032.85H970.244L973.543 1026.25L972.444 1021.84L973.543 1019.64L988.94 1017.44L993.34 1014.14L1005.44 1022.94H1014.24L1032.93 1029.55L1042.83 1040.55L1054.93 1047.15L1058.23 1051.55L1048.33 1060.35Z" fill="#75A1CB" stroke="url(#paint34_linear_0_9)" stroke-opacity="0.44" stroke-width="2.88374" stroke-miterlimit="10"/>
<path fill-rule="evenodd" clip-rule="evenodd" d="M770.081 1086.76H774.48L777.779 1084.56L787.678 1087.86H799.775L803.075 1084.56L806.374 1083.46L830.569 1085.66L837.168 1083.46L853.665 1074.66L867.963 1070.26L921.852 1060.36L929.551 1064.76L942.749 1080.16L957.046 1085.66L962.545 1088.96L970.243 1092.26V1095.56L976.842 1103.27L971.343 1116.47L979.042 1114.27L981.241 1115.37L984.541 1114.27L996.638 1105.47L999.938 1098.86L1014.24 1097.76L1017.53 1094.46L1018.63 1086.76L1024.13 1080.16L1031.83 1079.06L1034.03 1076.86L1037.33 1068.06L1048.33 1060.36L1057.13 1092.26L1062.63 1129.67L1046.13 1159.38V1180.28L1043.93 1203.39L1050.53 1215.49L1057.13 1234.2L1059.33 1259.5L1061.53 1260.6L1050.53 1268.3L1028.53 1278.21L1021.93 1277.11L1010.94 1282.61L994.439 1285.91L966.944 1289.21L926.252 1249.6L908.655 1236.4L897.657 1222.09L870.162 1197.89L867.963 1192.39L853.665 1181.38L815.172 1135.17L770.081 1086.76Z" fill="#75A1CB" stroke="url(#paint35_linear_0_9)" stroke-opacity="0.44" stroke-width="2.88374" stroke-miterlimit="10"/>
<path fill-rule="evenodd" clip-rule="evenodd" d="M770.079 1086.76L815.17 1135.17L853.663 1181.38L867.96 1192.38L870.16 1197.89L897.655 1222.09L908.653 1236.39L926.249 1249.6L966.942 1289.21L940.547 1310.11L902.054 1326.62L875.659 1343.12H866.861L862.461 1342.02L827.268 1358.52L825.068 1357.42L794.274 1309.01L787.675 1287.01L772.278 1270.5L731.586 1257.3L724.987 1258.4L715.089 1267.2L709.59 1262.8L704.091 1270.5L694.193 1274.9L679.896 1254L696.392 1246.3L713.989 1240.8H726.087L751.382 1230.89H763.48L766.779 1212.19L772.278 1211.09L777.777 1205.59L776.677 1187.98L749.183 1173.68L704.091 1168.18L685.395 1169.28L677.696 1198.99L674.397 1186.88L671.097 1183.58L666.698 1165.98L672.197 1116.47L683.195 1120.87L695.293 1112.07L723.887 1085.66L734.885 1079.06L746.983 1075.76L760.18 1077.96L770.079 1086.76Z" fill="#75A1CB" stroke="url(#paint36_linear_0_9)" stroke-opacity="0.44" stroke-width="2.88374" stroke-miterlimit="10"/>
<path fill-rule="evenodd" clip-rule="evenodd" d="M1472.85 1080.16L1482.74 1091.16V1096.66L1503.64 1114.27L1499.24 1125.27L1515.74 1137.37L1512.44 1145.07L1514.64 1152.78L1524.54 1159.38L1527.84 1154.98L1535.53 1162.68L1532.24 1163.78L1528.94 1168.18L1522.34 1183.58L1526.74 1192.38V1201.19L1520.14 1212.19L1516.84 1213.29L1509.14 1224.29L1505.84 1222.09L1497.04 1219.89L1493.74 1224.29L1489.34 1218.79L1484.94 1211.09L1482.74 1229.79L1476.15 1227.59L1467.35 1234.19L1461.85 1224.29L1458.55 1219.89L1467.35 1206.69L1468.45 1201.19L1477.25 1190.18L1467.35 1184.68L1454.15 1170.38L1434.35 1161.58L1414.56 1129.67L1431.05 1119.77L1438.75 1120.87L1448.65 1113.17L1451.95 1107.66L1459.65 1102.16L1470.65 1101.06L1473.95 1091.16L1471.75 1081.26L1472.85 1080.16Z" fill="#75A1CB" stroke="url(#paint37_linear_0_9)" stroke-opacity="0.44" stroke-width="2.88374" stroke-miterlimit="10"/>
<path fill-rule="evenodd" clip-rule="evenodd" d="M1482.74 1091.16L1494.84 1101.06L1521.24 1106.56L1534.43 1119.77L1543.23 1124.17H1553.13L1561.93 1120.87L1567.43 1150.58L1566.33 1156.08L1575.13 1186.88L1577.33 1190.18L1571.83 1187.98L1564.13 1185.78V1180.28L1548.73 1154.98L1541.03 1156.08V1161.58L1535.53 1162.68L1527.84 1154.98L1524.54 1159.38L1514.64 1152.78L1512.44 1145.07L1515.74 1137.37L1499.24 1125.27L1503.64 1114.27L1482.74 1096.66V1091.16Z" fill="#75A1CB" stroke="url(#paint38_linear_0_9)" stroke-opacity="0.44" stroke-width="2.88374" stroke-miterlimit="10"/>
<path fill-rule="evenodd" clip-rule="evenodd" d="M1259.49 1217.69L1255.09 1203.39L1271.59 1184.68L1278.19 1181.38L1284.78 1173.68H1288.08L1294.68 1170.38L1300.18 1164.88L1304.58 1157.17L1307.88 1141.77L1311.18 1136.27L1318.88 1131.87L1326.58 1123.07L1337.57 1137.37L1346.37 1156.07L1390.36 1145.07L1407.96 1137.37L1414.56 1129.67L1434.36 1161.58L1454.15 1170.38L1467.35 1184.68L1477.25 1190.18L1468.45 1201.19L1467.35 1206.69L1458.55 1219.89L1461.85 1224.29L1453.05 1228.69L1436.56 1259.5L1428.86 1269.4L1415.66 1280.4L1410.16 1278.2L1392.56 1277.1L1374.97 1280.4L1363.97 1281.5L1358.47 1278.2L1348.57 1279.3L1341.97 1277.1L1334.27 1282.6L1327.68 1283.7L1312.28 1276L1291.38 1281.5L1280.38 1280.4L1267.19 1235.29L1259.49 1217.69Z" fill="#75A1CB" stroke="url(#paint39_linear_0_9)" stroke-opacity="0.44" stroke-width="2.88374" stroke-miterlimit="10"/>
<path fill-rule="evenodd" clip-rule="evenodd" d="M679.898 1254L676.599 1243L674.399 1226.49L677.698 1218.79L676.599 1215.49L678.798 1211.09L677.698 1198.99L685.397 1169.28L704.093 1168.18L749.185 1173.68L776.68 1187.99L777.78 1205.59L772.281 1211.09L766.782 1212.19L763.482 1230.9H751.385L726.089 1240.8H713.992L696.395 1246.3L679.898 1254Z" fill="#75A1CB" stroke="url(#paint40_linear_0_9)" stroke-opacity="0.44" stroke-width="2.88374" stroke-miterlimit="10"/>
<path fill-rule="evenodd" clip-rule="evenodd" d="M1259.49 1217.69L1267.19 1235.29L1235.29 1260.6L1247.39 1290.31L1241.89 1289.21L1236.39 1284.8L1225.4 1282.6L1219.9 1273.8L1214.4 1272.7L1212.2 1273.8L1210 1290.31V1294.71L1212.2 1295.81L1210 1307.91L1205.6 1312.31L1203.4 1318.91L1199 1316.71L1191.3 1324.41L1162.71 1360.72L1158.31 1362.92L1160.51 1376.13L1159.41 1379.43L1160.51 1381.63L1159.41 1383.83L1149.51 1391.53L1148.41 1394.83L1136.31 1395.93L1131.91 1398.13L1127.51 1394.83L1119.81 1399.23V1397.03L1112.12 1393.73L1086.82 1365.12L1042.83 1347.52L1024.13 1343.12L1016.43 1324.41L1009.84 1316.71L994.438 1285.91L1010.94 1282.6L1021.93 1277.1L1028.53 1278.2L1050.53 1268.3L1061.53 1260.6L1059.33 1259.5L1057.13 1234.19L1050.53 1215.49L1043.93 1203.39L1046.13 1180.28V1159.38L1062.63 1129.67L1070.32 1131.87L1082.42 1146.17V1149.47L1100.02 1154.97L1109.92 1167.08L1114.32 1176.98L1107.72 1184.68L1120.91 1189.08L1133.01 1183.58L1144.01 1173.68L1155.01 1186.88L1171.51 1201.19L1167.11 1219.89L1174.8 1226.49L1179.2 1235.29L1185.8 1239.69L1190.2 1247.4L1203.4 1241.89L1204.5 1233.09L1213.3 1226.49L1219.9 1224.29L1224.3 1218.79H1229.79L1235.29 1209.99L1244.09 1216.59L1246.29 1215.49L1250.69 1219.89L1259.49 1217.69Z" fill="#75A1CB" stroke="url(#paint41_linear_0_9)" stroke-opacity="0.44" stroke-width="2.88374" stroke-miterlimit="10"/>
<path fill-rule="evenodd" clip-rule="evenodd" d="M1571.78 1187.98L1577.28 1190.18L1571.78 1193.48L1570.69 1192.38L1572.88 1191.28L1571.78 1187.98Z" fill="#75A1CB" stroke="url(#paint42_linear_0_9)" stroke-opacity="0.44" stroke-width="2.88374" stroke-miterlimit="10"/>
<path fill-rule="evenodd" clip-rule="evenodd" d="M1576.18 1202.29L1578.38 1201.19L1582.78 1205.59L1583.88 1212.19L1580.58 1216.59V1227.59L1581.68 1234.19L1579.48 1229.79L1577.28 1217.69L1572.88 1208.89L1576.18 1205.59V1202.29Z" fill="#75A1CB" stroke="url(#paint43_linear_0_9)" stroke-opacity="0.44" stroke-width="2.88374" stroke-miterlimit="10"/>
<path fill-rule="evenodd" clip-rule="evenodd" d="M1461.85 1224.29L1467.35 1234.19L1476.15 1227.59L1482.75 1229.79L1484.95 1211.09L1489.35 1218.79L1493.74 1224.29L1497.04 1219.89L1505.84 1222.09L1509.14 1224.29L1500.34 1235.29L1488.25 1239.7L1482.75 1244.1L1479.45 1252.9L1480.55 1256.2L1479.45 1260.6L1477.25 1261.7V1267.2L1470.65 1273.8L1469.55 1279.3L1460.75 1280.4L1454.15 1278.2L1433.26 1281.51L1415.66 1280.4L1428.86 1269.4L1436.56 1259.5L1453.05 1228.69L1461.85 1224.29Z" fill="#75A1CB" stroke="url(#paint44_linear_0_9)" stroke-opacity="0.44" stroke-width="2.88374" stroke-miterlimit="10"/>
<path fill-rule="evenodd" clip-rule="evenodd" d="M1280.38 1280.45L1277.08 1281.55L1266.08 1289.25L1247.39 1290.35L1235.29 1260.65L1267.18 1235.34L1280.38 1280.45Z" fill="#75A1CB" stroke="url(#paint45_linear_0_9)" stroke-opacity="0.44" stroke-width="2.88374" stroke-miterlimit="10"/>
<path fill-rule="evenodd" clip-rule="evenodd" d="M1530.04 1305.76L1526.74 1303.56L1524.54 1302.46L1526.74 1300.26H1530.04L1532.24 1302.46L1530.04 1305.76Z" fill="#75A1CB" stroke="url(#paint46_linear_0_9)" stroke-opacity="0.44" stroke-width="2.88374" stroke-miterlimit="10"/>
<path fill-rule="evenodd" clip-rule="evenodd" d="M1559.73 1315.66L1554.23 1313.46L1553.13 1309.06V1305.76L1556.43 1300.26L1563.03 1307.96L1564.13 1311.26V1313.46L1559.73 1315.66Z" fill="#75A1CB" stroke="url(#paint47_linear_0_9)" stroke-opacity="0.44" stroke-width="2.88374" stroke-miterlimit="10"/>
<path fill-rule="evenodd" clip-rule="evenodd" d="M1462.95 1459.79L1460.75 1436.69L1454.15 1437.79L1453.05 1434.49L1450.85 1435.59L1444.25 1428.99L1442.05 1422.38L1432.15 1409.18V1404.78L1429.95 1401.48L1410.16 1408.08L1406.86 1403.68L1405.76 1391.58L1403.56 1388.28L1410.16 1383.88L1414.56 1382.77L1421.16 1376.17L1427.75 1373.97L1434.35 1379.47L1449.75 1382.77L1454.15 1394.88L1459.65 1393.78L1462.95 1395.98V1400.38L1466.25 1401.48L1468.45 1403.68L1478.35 1409.18V1419.08L1484.94 1420.18L1491.54 1427.89V1447.69L1487.14 1445.49H1480.54L1478.35 1448.79L1480.54 1454.29L1470.65 1456.49L1468.45 1454.29L1462.95 1459.79Z" fill="#75A1CB" stroke="url(#paint48_linear_0_9)" stroke-opacity="0.44" stroke-width="2.88374" stroke-miterlimit="10"/>
<path fill-rule="evenodd" clip-rule="evenodd" d="M434.642 1524.71L429.143 1517.01L437.941 1513.71L443.44 1508.2L441.24 1504.9H443.44V1500.5L445.64 1498.3H454.438L456.637 1491.7L461.037 1488.4L459.937 1486.2L462.136 1478.5L468.735 1475.2L472.035 1469.7L476.434 1467.5H480.833L490.731 1470.8L498.43 1469.7L506.128 1476.3L517.126 1465.29L527.024 1459.79L539.122 1447.69L540.222 1442.19L549.02 1438.89L557.819 1442.19L580.914 1446.59L589.713 1443.29H594.112L599.611 1439.99L615.008 1442.19L624.906 1437.79V1441.09L630.405 1450.99L637.004 1457.59L641.403 1465.29L629.305 1468.6L627.106 1491.7L615.008 1495L610.609 1493.9L601.81 1495L590.812 1498.3V1529.11L583.114 1524.71L577.615 1530.21H572.116L567.717 1534.61L563.318 1543.41L562.218 1542.31L560.018 1545.61L551.22 1548.91L547.92 1552.22L549.02 1555.52L535.823 1568.72V1578.62L527.024 1584.12L525.925 1589.62L522.625 1590.72L516.026 1598.43L517.126 1601.73L510.527 1611.63L498.43 1620.43L487.432 1597.33L481.933 1588.52L475.334 1584.12L434.642 1524.71Z" fill="#75A1CB" stroke="url(#paint49_linear_0_9)" stroke-opacity="0.44" stroke-width="2.88374" stroke-miterlimit="10"/>
<path fill-rule="evenodd" clip-rule="evenodd" d="M640.305 1667.74L657.901 1655.64L655.702 1652.34L657.901 1650.14L648.003 1634.74L650.203 1631.43L646.903 1624.83L654.602 1613.83L650.203 1611.63L654.602 1603.93L652.402 1600.63V1598.43L660.101 1595.13V1589.62L662.3 1588.52L661.201 1585.22L665.6 1579.72V1576.42L668.899 1570.92L673.298 1568.72L691.995 1555.52L696.394 1546.71L693.095 1542.31L695.294 1534.61L701.893 1532.41L709.592 1525.81L720.59 1529.11L721.689 1536.81L724.989 1533.51H732.687L733.787 1524.71L754.683 1511.51L756.883 1507.11L755.783 1504.9L766.781 1498.3L774.479 1497.2L777.779 1493.9L787.677 1490.6L793.176 1485.1H800.875L817.371 1498.3L815.172 1512.61L821.771 1535.71H817.371L814.072 1542.31L817.371 1554.42L825.07 1559.92L829.469 1567.62L833.868 1572.02L851.465 1578.62L870.162 1597.33L873.461 1598.43L869.062 1606.13L867.962 1607.23L869.062 1609.43L866.862 1613.83L864.663 1621.53L861.363 1624.83L863.563 1627.03L861.363 1629.23L859.164 1645.74V1647.94L866.862 1649.04L865.762 1654.54L862.463 1655.64L855.864 1663.34H851.465L845.966 1662.24L841.567 1651.24L823.97 1652.34L822.87 1654.54L818.471 1655.64L812.972 1664.44H809.673L807.473 1666.64L803.074 1667.74L797.575 1678.75L794.276 1676.55H786.577L784.378 1678.75V1680.95L783.278 1683.15L786.577 1684.25L785.477 1685.35L778.879 1688.65L779.978 1685.35L773.38 1682.05L767.881 1683.15L765.681 1686.45L767.881 1689.75L765.681 1690.85L761.282 1691.95L762.382 1689.75L760.182 1687.55L755.783 1688.65L744.785 1697.45L740.386 1699.65L734.887 1708.45L733.787 1711.75L728.288 1712.85L726.088 1711.75L722.789 1717.25H720.59L717.29 1721.66L716.19 1724.96L679.897 1691.95L640.305 1667.74Z" fill="#75A1CB" stroke="url(#paint50_linear_0_9)" stroke-opacity="0.44" stroke-width="2.88374" stroke-miterlimit="10"/>
<path fill-rule="evenodd" clip-rule="evenodd" d="M1070.32 1495L1068.12 1493.9L1071.42 1490.6L1072.52 1495H1070.32Z" fill="#75A1CB" stroke="url(#paint51_linear_0_9)" stroke-opacity="0.44" stroke-width="2.88374" stroke-miterlimit="10"/>
<path fill-rule="evenodd" clip-rule="evenodd" d="M797.577 1682.04V1678.74L800.876 1679.84L797.577 1682.04Z" fill="#75A1CB" stroke="url(#paint52_linear_0_9)" stroke-opacity="0.44" stroke-width="2.88374" stroke-miterlimit="10"/>
<defs>
<linearGradient id="paint0_linear_0_9" x1="331.261" y1="474.97" x2="331.261" y2="952.482" gradientUnits="userSpaceOnUse">
<stop stop-color="#D7EBFF"/>
<stop offset="1" stop-color="#D7EBFF" stop-opacity="0.4"/>
</linearGradient>
<linearGradient id="paint1_linear_0_9" x1="867.961" y1="477.172" x2="867.961" y2="744.534" gradientUnits="userSpaceOnUse">
<stop stop-color="#D7EBFF"/>
<stop offset="1" stop-color="#D7EBFF" stop-opacity="0.4"/>
</linearGradient>
<linearGradient id="paint2_linear_0_9" x1="1095.62" y1="952.528" x2="1095.62" y2="1010.84" gradientUnits="userSpaceOnUse">
<stop stop-color="#D7EBFF"/>
<stop offset="1" stop-color="#D7EBFF" stop-opacity="0.4"/>
</linearGradient>
<linearGradient id="paint3_linear_0_9" x1="638.653" y1="986.637" x2="638.653" y2="1667.7" gradientUnits="userSpaceOnUse">
<stop stop-color="#D7EBFF"/>
<stop offset="1" stop-color="#D7EBFF" stop-opacity="0.4"/>
</linearGradient>
<linearGradient id="paint4_linear_0_9" x1="1619.63" y1="1265.05" x2="1619.63" y2="1270.55" gradientUnits="userSpaceOnUse">
<stop stop-color="#D7EBFF"/>
<stop offset="1" stop-color="#D7EBFF" stop-opacity="0.4"/>
</linearGradient>
<linearGradient id="paint5_linear_0_9" x1="1376.07" y1="1272.75" x2="1376.07" y2="1517.01" gradientUnits="userSpaceOnUse">
<stop stop-color="#D7EBFF"/>
<stop offset="1" stop-color="#D7EBFF" stop-opacity="0.4"/>
</linearGradient>
<linearGradient id="paint6_linear_0_9" x1="995.537" y1="1285.95" x2="995.537" y2="1543.41" gradientUnits="userSpaceOnUse">
<stop stop-color="#D7EBFF"/>
<stop offset="1" stop-color="#D7EBFF" stop-opacity="0.4"/>
</linearGradient>
<linearGradient id="paint7_linear_0_9" x1="1139.06" y1="1.85937" x2="1139.06" y2="393.551" gradientUnits="userSpaceOnUse">
<stop stop-color="#D7EBFF"/>
<stop offset="1" stop-color="#D7EBFF" stop-opacity="0.4"/>
</linearGradient>
<linearGradient id="paint8_linear_0_9" x1="1030.18" y1="67.8732" x2="1030.18" y2="580.594" gradientUnits="userSpaceOnUse">
<stop stop-color="#D7EBFF"/>
<stop offset="1" stop-color="#D7EBFF" stop-opacity="0.4"/>
</linearGradient>
<linearGradient id="paint9_linear_0_9" x1="1262.24" y1="506.877" x2="1262.24" y2="765.438" gradientUnits="userSpaceOnUse">
<stop stop-color="#D7EBFF"/>
<stop offset="1" stop-color="#D7EBFF" stop-opacity="0.4"/>
</linearGradient>
<linearGradient id="paint10_linear_0_9" x1="991.137" y1="543.186" x2="991.137" y2="731.33" gradientUnits="userSpaceOnUse">
<stop stop-color="#D7EBFF"/>
<stop offset="1" stop-color="#D7EBFF" stop-opacity="0.4"/>
</linearGradient>
<linearGradient id="paint11_linear_0_9" x1="1199" y1="545.388" x2="1199" y2="797.347" gradientUnits="userSpaceOnUse">
<stop stop-color="#D7EBFF"/>
<stop offset="1" stop-color="#D7EBFF" stop-opacity="0.4"/>
</linearGradient>
<linearGradient id="paint12_linear_0_9" x1="668.899" y1="555.335" x2="668.899" y2="745.68" gradientUnits="userSpaceOnUse">
<stop stop-color="#D7EBFF"/>
<stop offset="1" stop-color="#D7EBFF" stop-opacity="0.4"/>
</linearGradient>
<linearGradient id="paint13_linear_0_9" x1="1014.79" y1="602.644" x2="1014.79" y2="743.477" gradientUnits="userSpaceOnUse">
<stop stop-color="#D7EBFF"/>
<stop offset="1" stop-color="#D7EBFF" stop-opacity="0.4"/>
</linearGradient>
<linearGradient id="paint14_linear_0_9" x1="1121.46" y1="602.644" x2="1121.46" y2="938.223" gradientUnits="userSpaceOnUse">
<stop stop-color="#D7EBFF"/>
<stop offset="1" stop-color="#D7EBFF" stop-opacity="0.4"/>
</linearGradient>
<linearGradient id="paint15_linear_0_9" x1="1036.78" y1="691.766" x2="1036.78" y2="787.488" gradientUnits="userSpaceOnUse">
<stop stop-color="#D7EBFF"/>
<stop offset="1" stop-color="#D7EBFF" stop-opacity="0.4"/>
</linearGradient>
<linearGradient id="paint16_linear_0_9" x1="896.005" y1="701.668" x2="896.005" y2="811.694" gradientUnits="userSpaceOnUse">
<stop stop-color="#D7EBFF"/>
<stop offset="1" stop-color="#D7EBFF" stop-opacity="0.4"/>
</linearGradient>
<linearGradient id="paint17_linear_0_9" x1="788.226" y1="710.47" x2="788.226" y2="1120.87" gradientUnits="userSpaceOnUse">
<stop stop-color="#D7EBFF"/>
<stop offset="1" stop-color="#D7EBFF" stop-opacity="0.4"/>
</linearGradient>
<linearGradient id="paint18_linear_0_9" x1="605.661" y1="718.171" x2="605.661" y2="1017.44" gradientUnits="userSpaceOnUse">
<stop stop-color="#D7EBFF"/>
<stop offset="1" stop-color="#D7EBFF" stop-opacity="0.4"/>
</linearGradient>
<linearGradient id="paint19_linear_0_9" x1="956.495" y1="739.078" x2="956.495" y2="867.809" gradientUnits="userSpaceOnUse">
<stop stop-color="#D7EBFF"/>
<stop offset="1" stop-color="#D7EBFF" stop-opacity="0.4"/>
</linearGradient>
<linearGradient id="paint20_linear_0_9" x1="1005.44" y1="765.481" x2="1005.44" y2="866.705" gradientUnits="userSpaceOnUse">
<stop stop-color="#D7EBFF"/>
<stop offset="1" stop-color="#D7EBFF" stop-opacity="0.4"/>
</linearGradient>
<linearGradient id="paint21_linear_0_9" x1="286.169" y1="766.585" x2="286.169" y2="1115.37" gradientUnits="userSpaceOnUse">
<stop stop-color="#D7EBFF"/>
<stop offset="1" stop-color="#D7EBFF" stop-opacity="0.4"/>
</linearGradient>
<linearGradient id="paint22_linear_0_9" x1="1030.73" y1="766.585" x2="1030.73" y2="834.801" gradientUnits="userSpaceOnUse">
<stop stop-color="#D7EBFF"/>
<stop offset="1" stop-color="#D7EBFF" stop-opacity="0.4"/>
</linearGradient>
<linearGradient id="paint23_linear_0_9" x1="1073.07" y1="779.788" x2="1073.07" y2="854.606" gradientUnits="userSpaceOnUse">
<stop stop-color="#D7EBFF"/>
<stop offset="1" stop-color="#D7EBFF" stop-opacity="0.4"/>
</linearGradient>
<linearGradient id="paint24_linear_0_9" x1="1264.99" y1="783.088" x2="1264.99" y2="887.613" gradientUnits="userSpaceOnUse">
<stop stop-color="#D7EBFF"/>
<stop offset="1" stop-color="#D7EBFF" stop-opacity="0.4"/>
</linearGradient>
<linearGradient id="paint25_linear_0_9" x1="1209.99" y1="791.89" x2="1209.99" y2="1247.4" gradientUnits="userSpaceOnUse">
<stop stop-color="#D7EBFF"/>
<stop offset="1" stop-color="#D7EBFF" stop-opacity="0.4"/>
</linearGradient>
<linearGradient id="paint26_linear_0_9" x1="958.145" y1="802.894" x2="958.145" y2="955.829" gradientUnits="userSpaceOnUse">
<stop stop-color="#D7EBFF"/>
<stop offset="1" stop-color="#D7EBFF" stop-opacity="0.4"/>
</linearGradient>
<linearGradient id="paint27_linear_0_9" x1="1043.93" y1="811.696" x2="1043.93" y2="854.606" gradientUnits="userSpaceOnUse">
<stop stop-color="#D7EBFF"/>
<stop offset="1" stop-color="#D7EBFF" stop-opacity="0.4"/>
</linearGradient>
<linearGradient id="paint28_linear_0_9" x1="665.599" y1="828.198" x2="665.599" y2="991.036" gradientUnits="userSpaceOnUse">
<stop stop-color="#D7EBFF"/>
<stop offset="1" stop-color="#D7EBFF" stop-opacity="0.4"/>
</linearGradient>
<linearGradient id="paint29_linear_0_9" x1="1060.43" y1="845.803" x2="1060.43" y2="896.415" gradientUnits="userSpaceOnUse">
<stop stop-color="#D7EBFF"/>
<stop offset="1" stop-color="#D7EBFF" stop-opacity="0.4"/>
</linearGradient>
<linearGradient id="paint30_linear_0_9" x1="1332.07" y1="872.209" x2="1332.07" y2="930.522" gradientUnits="userSpaceOnUse">
<stop stop-color="#D7EBFF"/>
<stop offset="1" stop-color="#D7EBFF" stop-opacity="0.4"/>
</linearGradient>
<linearGradient id="paint31_linear_0_9" x1="949.897" y1="875.509" x2="949.897" y2="942.625" gradientUnits="userSpaceOnUse">
<stop stop-color="#D7EBFF"/>
<stop offset="1" stop-color="#D7EBFF" stop-opacity="0.4"/>
</linearGradient>
<linearGradient id="paint32_linear_0_9" x1="1058.23" y1="879.908" x2="1058.23" y2="945.924" gradientUnits="userSpaceOnUse">
<stop stop-color="#D7EBFF"/>
<stop offset="1" stop-color="#D7EBFF" stop-opacity="0.4"/>
</linearGradient>
<linearGradient id="paint33_linear_0_9" x1="830.016" y1="927.223" x2="830.016" y2="1011.94" gradientUnits="userSpaceOnUse">
<stop stop-color="#D7EBFF"/>
<stop offset="1" stop-color="#D7EBFF" stop-opacity="0.4"/>
</linearGradient>
<linearGradient id="paint34_linear_0_9" x1="990.04" y1="1014.14" x2="990.04" y2="1116.47" gradientUnits="userSpaceOnUse">
<stop stop-color="#D7EBFF"/>
<stop offset="1" stop-color="#D7EBFF" stop-opacity="0.4"/>
</linearGradient>
<linearGradient id="paint35_linear_0_9" x1="916.353" y1="1060.36" x2="916.353" y2="1289.21" gradientUnits="userSpaceOnUse">
<stop stop-color="#D7EBFF"/>
<stop offset="1" stop-color="#D7EBFF" stop-opacity="0.4"/>
</linearGradient>
<linearGradient id="paint36_linear_0_9" x1="816.82" y1="1075.76" x2="816.82" y2="1358.52" gradientUnits="userSpaceOnUse">
<stop stop-color="#D7EBFF"/>
<stop offset="1" stop-color="#D7EBFF" stop-opacity="0.4"/>
</linearGradient>
<linearGradient id="paint37_linear_0_9" x1="1475.05" y1="1080.16" x2="1475.05" y2="1234.19" gradientUnits="userSpaceOnUse">
<stop stop-color="#D7EBFF"/>
<stop offset="1" stop-color="#D7EBFF" stop-opacity="0.4"/>
</linearGradient>
<linearGradient id="paint38_linear_0_9" x1="1530.04" y1="1091.16" x2="1530.04" y2="1190.18" gradientUnits="userSpaceOnUse">
<stop stop-color="#D7EBFF"/>
<stop offset="1" stop-color="#D7EBFF" stop-opacity="0.4"/>
</linearGradient>
<linearGradient id="paint39_linear_0_9" x1="1366.17" y1="1123.07" x2="1366.17" y2="1283.7" gradientUnits="userSpaceOnUse">
<stop stop-color="#D7EBFF"/>
<stop offset="1" stop-color="#D7EBFF" stop-opacity="0.4"/>
</linearGradient>
<linearGradient id="paint40_linear_0_9" x1="726.089" y1="1168.18" x2="726.089" y2="1254" gradientUnits="userSpaceOnUse">
<stop stop-color="#D7EBFF"/>
<stop offset="1" stop-color="#D7EBFF" stop-opacity="0.4"/>
</linearGradient>
<linearGradient id="paint41_linear_0_9" x1="1130.81" y1="1129.67" x2="1130.81" y2="1399.23" gradientUnits="userSpaceOnUse">
<stop stop-color="#D7EBFF"/>
<stop offset="1" stop-color="#D7EBFF" stop-opacity="0.4"/>
</linearGradient>
<linearGradient id="paint42_linear_0_9" x1="1573.98" y1="1187.98" x2="1573.98" y2="1193.48" gradientUnits="userSpaceOnUse">
<stop stop-color="#D7EBFF"/>
<stop offset="1" stop-color="#D7EBFF" stop-opacity="0.4"/>
</linearGradient>
<linearGradient id="paint43_linear_0_9" x1="1578.38" y1="1201.19" x2="1578.38" y2="1234.19" gradientUnits="userSpaceOnUse">
<stop stop-color="#D7EBFF"/>
<stop offset="1" stop-color="#D7EBFF" stop-opacity="0.4"/>
</linearGradient>
<linearGradient id="paint44_linear_0_9" x1="1462.4" y1="1211.09" x2="1462.4" y2="1281.51" gradientUnits="userSpaceOnUse">
<stop stop-color="#D7EBFF"/>
<stop offset="1" stop-color="#D7EBFF" stop-opacity="0.4"/>
</linearGradient>
<linearGradient id="paint45_linear_0_9" x1="1257.84" y1="1235.34" x2="1257.84" y2="1290.35" gradientUnits="userSpaceOnUse">
<stop stop-color="#D7EBFF"/>
<stop offset="1" stop-color="#D7EBFF" stop-opacity="0.4"/>
</linearGradient>
<linearGradient id="paint46_linear_0_9" x1="1528.39" y1="1300.26" x2="1528.39" y2="1305.76" gradientUnits="userSpaceOnUse">
<stop stop-color="#D7EBFF"/>
<stop offset="1" stop-color="#D7EBFF" stop-opacity="0.4"/>
</linearGradient>
<linearGradient id="paint47_linear_0_9" x1="1558.63" y1="1300.26" x2="1558.63" y2="1315.66" gradientUnits="userSpaceOnUse">
<stop stop-color="#D7EBFF"/>
<stop offset="1" stop-color="#D7EBFF" stop-opacity="0.4"/>
</linearGradient>
<linearGradient id="paint48_linear_0_9" x1="1447.55" y1="1373.97" x2="1447.55" y2="1459.79" gradientUnits="userSpaceOnUse">
<stop stop-color="#D7EBFF"/>
<stop offset="1" stop-color="#D7EBFF" stop-opacity="0.4"/>
</linearGradient>
<linearGradient id="paint49_linear_0_9" x1="535.273" y1="1437.79" x2="535.273" y2="1620.43" gradientUnits="userSpaceOnUse">
<stop stop-color="#D7EBFF"/>
<stop offset="1" stop-color="#D7EBFF" stop-opacity="0.4"/>
</linearGradient>
<linearGradient id="paint50_linear_0_9" x1="756.883" y1="1485.1" x2="756.883" y2="1724.96" gradientUnits="userSpaceOnUse">
<stop stop-color="#D7EBFF"/>
<stop offset="1" stop-color="#D7EBFF" stop-opacity="0.4"/>
</linearGradient>
<linearGradient id="paint51_linear_0_9" x1="1070.32" y1="1490.6" x2="1070.32" y2="1495" gradientUnits="userSpaceOnUse">
<stop stop-color="#D7EBFF"/>
<stop offset="1" stop-color="#D7EBFF" stop-opacity="0.4"/>
</linearGradient>
<linearGradient id="paint52_linear_0_9" x1="799.227" y1="1678.74" x2="799.227" y2="1682.04" gradientUnits="userSpaceOnUse">
<stop stop-color="#D7EBFF"/>
<stop offset="1" stop-color="#D7EBFF" stop-opacity="0.4"/>
</linearGradient>
</defs>
</svg>
